<?xml version="1.0" encoding="UTF-8"?>
<svg version="1.1" xmlns="http://www.w3.org/2000/svg" width="676" height="369">
<path d="M0 0 C10.71040745 -0.06986495 21.42075966 -0.12299514 32.13134956 -0.15543652 C37.10604086 -0.17101578 42.08057493 -0.19211066 47.05517578 -0.22631836 C51.86627599 -0.25919037 56.67722607 -0.27691103 61.48843002 -0.28463173 C63.31341791 -0.29012572 65.13839866 -0.30085231 66.96332169 -0.31719017 C87.10503249 -0.49015081 106.189338 2.34897311 122 16 C123.83138679 17.92690129 125.39362362 19.8754377 127 22 C127.66 22.33 128.32 22.66 129 23 C129 23.99 129 24.98 129 26 C129.66 26 130.32 26 131 26 C134.2192521 32.57366363 136.88013862 38.74635242 138 46 C138.20109375 47.13308594 138.20109375 47.13308594 138.40625 48.2890625 C140.11866954 60.23708064 137.3243817 72.27582043 132 83 C130.52734375 84.93359375 130.52734375 84.93359375 129.125 86.4375 C126.6675334 88.84608752 126.6675334 88.84608752 127 92.125 C127.98762308 94.96441637 129.19346827 96.64365427 131 99 C131 100.32 131 101.64 131 103 C127.44377352 104.20688849 123.87922162 105.38702677 120.3125 106.5625 C119.30509766 106.90474609 118.29769531 107.24699219 117.25976562 107.59960938 C115.79506836 108.07817383 115.79506836 108.07817383 114.30078125 108.56640625 C113.40528564 108.86490479 112.50979004 109.16340332 111.5871582 109.47094727 C108.65422273 110.07070863 106.83463959 109.94004208 104 109 C102.47631879 106.85074235 101.37903524 104.9714817 100.25 102.625 C99.91709961 101.96886719 99.58419922 101.31273437 99.24121094 100.63671875 C96.08693366 94.35739753 93.09508252 87.98952194 90.14550781 81.61181641 C87.97157243 76.92880556 85.62542798 72.44667081 83 68 C83.01160156 68.68707031 83.02320313 69.37414062 83.03515625 70.08203125 C83.04417969 70.98308594 83.05320312 71.88414062 83.0625 72.8125 C83.07410156 73.70582031 83.08570313 74.59914063 83.09765625 75.51953125 C83 78 83 78 82 81 C72.1 81 62.2 81 52 81 C52 64.5 52 48 52 31 C82.18977951 30.4051275 82.18977951 30.4051275 92 35 C92.65395752 35.26683594 93.30791504 35.53367188 93.98168945 35.80859375 C96.46216164 37.27281345 97.2261997 38.6068468 98.578125 41.1328125 C99.01640625 41.93847656 99.4546875 42.74414062 99.90625 43.57421875 C100.3496875 44.41597656 100.793125 45.25773437 101.25 46.125 C101.93835938 47.39923828 101.93835938 47.39923828 102.640625 48.69921875 C103.77055881 50.79430436 104.8897933 52.8944137 106 55 C106.15574968 48.13061942 105.28767636 43.5886864 100.625 38.3125 C99.75875 37.549375 98.8925 36.78625 98 36 C96.9171875 34.948125 96.9171875 34.948125 95.8125 33.875 C88.20690704 28.80460469 79.52735138 28.54001539 70.6484375 28.48828125 C69.63628174 28.47164429 68.62412598 28.45500732 67.58129883 28.43786621 C63.84607134 28.38058432 60.11049853 28.34794399 56.375 28.3125 C48.00125 28.209375 39.6275 28.10625 31 28 C31 46.81 31 65.62 31 85 C59.215 84.505 59.215 84.505 88 84 C99 104.77777778 99 104.77777778 99 108 C93.10261508 110.29342747 88.33393082 111.34548714 82 111 C82 112.32 82 113.64 82 115 C75.44646167 116.63172448 69.23979325 117.4141308 62.5 117.6875 C61.59507812 117.73455078 60.69015625 117.78160156 59.7578125 117.83007812 C54.8511315 118.05478349 54.8511315 118.05478349 53 118 C52.67 117.67 52.34 117.34 52 117 C52 115.02 52 113.04 52 111 C41.605 111.495 41.605 111.495 31 112 C30.67 113.65 30.34 115.3 30 117 C24.37777898 116.42771576 19.25643555 115.39317659 13.875 113.6875 C13.19824219 113.48705078 12.52148438 113.28660156 11.82421875 113.08007812 C11.15777344 112.87189453 10.49132812 112.66371094 9.8046875 112.44921875 C9.21671387 112.26705811 8.62874023 112.08489746 8.02294922 111.8972168 C4.82697211 110.47973962 2.66136368 109.3602488 0 107 C-0.89727323 103.58737807 -0.75793471 100.2337375 -0.68115234 96.72363281 C-0.68246658 95.15730858 -0.68246658 95.15730858 -0.68380737 93.55934143 C-0.6796259 90.10650934 -0.63294396 86.65561785 -0.5859375 83.203125 C-0.57474744 80.80988629 -0.56620636 78.41663383 -0.56021118 76.02337646 C-0.53729838 69.72326737 -0.47835219 63.4239878 -0.4119873 57.12420654 C-0.3506187 50.69619977 -0.32320765 44.26805901 -0.29296875 37.83984375 C-0.22861288 25.22620852 -0.12735503 12.61314837 0 0 Z " fill="#10598E" transform="translate(227,96)"/>
<path d="M0 0 C-0.59659534 4.87693014 -2.72887232 8.58213604 -5.0625 12.8125 C-5.88063657 14.32198012 -6.69699992 15.83242247 -7.51171875 17.34375 C-7.92599121 18.11203125 -8.34026367 18.8803125 -8.76708984 19.671875 C-11.06139235 24.00424503 -13.21136099 28.40959275 -15.34790039 32.8215332 C-18.60585993 39.45862671 -18.60585993 39.45862671 -21 42 C-21.99 42 -22.98 42 -24 42 C-24.99 37.71 -25.98 33.42 -27 29 C-27.99 29.33 -28.98 29.66 -30 30 C-30.37125 30.86625 -30.37125 30.86625 -30.75 31.75 C-32.3450194 34.62103492 -34.32698283 35.80189679 -37.05078125 37.55859375 C-39.14914055 39.02903094 -39.14914055 39.02903094 -41.2421875 41.3046875 C-44.52839656 44.51642157 -48.04789849 47.06958006 -51.8125 49.6875 C-52.55443604 50.20715332 -53.29637207 50.72680664 -54.06079102 51.26220703 C-60.98147437 56.06646673 -68.07202396 60.56946949 -75.26953125 64.9453125 C-76.82123904 65.89104862 -78.36433722 66.85087697 -79.90625 67.8125 C-85.11439617 71.02740504 -90.37057278 73.615772 -96 76 C-97.71087379 76.7651782 -99.41905956 77.5363853 -101.125 78.3125 C-102.04539062 78.72886719 -102.96578125 79.14523438 -103.9140625 79.57421875 C-106.17217673 80.61752469 -108.41252388 81.68073346 -110.6484375 82.76953125 C-117.10592918 85.89316664 -123.3372 88.5822075 -130.34375 90.26171875 C-133.27202662 91.0756074 -135.91150743 92.2024818 -138.6875 93.4375 C-145.25523083 96.27783035 -151.88817966 97.86780062 -158.84228516 99.46630859 C-161.28075908 100.06944324 -163.67855867 100.78054763 -166.08984375 101.484375 C-172.80878004 103.33073846 -179.59782355 104.2430748 -186.5 105.125 C-187.15286987 105.21026947 -187.80573975 105.29553894 -188.47839355 105.38339233 C-218.435795 109.2821025 -218.435795 109.2821025 -223 107 C-222.99476318 107.96413818 -222.98952637 108.92827637 -222.98413086 109.92163086 C-222.96607882 113.48672564 -222.95456726 117.05181636 -222.94506836 120.61694336 C-222.9400286 122.16219766 -222.9331968 123.70744716 -222.92456055 125.25268555 C-222.91247924 127.46925029 -222.90676827 129.68575218 -222.90234375 131.90234375 C-222.89460182 132.94454323 -222.89460182 132.94454323 -222.88670349 134.00779724 C-222.88650723 135.6722933 -222.93810871 137.33665499 -223 139 C-224 140 -224 140 -226.86743164 140.11352539 C-228.11903076 140.10828857 -229.37062988 140.10305176 -230.66015625 140.09765625 C-231.65685585 140.09553383 -231.65685585 140.09553383 -232.6736908 140.09336853 C-234.80333899 140.08775518 -236.93288339 140.07520054 -239.0625 140.0625 C-240.50325369 140.05748671 -241.94400903 140.05292351 -243.38476562 140.04882812 C-246.92321102 140.03778145 -250.46159539 140.02050792 -254 140 C-255.55977064 136.88045872 -255.12104126 133.57040616 -255.09765625 130.1484375 C-255.0962413 129.37440582 -255.09482635 128.60037415 -255.09336853 127.80288696 C-255.08776403 125.32688558 -255.07521083 122.85097412 -255.0625 120.375 C-255.05748558 118.69791797 -255.05292257 117.02083453 -255.04882812 115.34375 C-255.03779315 111.22913194 -255.02052554 107.11458122 -255 103 C-255.75756592 102.86279541 -256.51513184 102.72559082 -257.2956543 102.58422852 C-266.65097977 100.56316741 -276.33821828 94.72968689 -282 87 C-287.41212285 77.38197524 -288.53270548 67.94191317 -285.66601562 57.22070312 C-282.95839001 48.09889645 -278.5401464 40.67735644 -273 33 C-272.45601562 32.21109375 -271.91203125 31.4221875 -271.3515625 30.609375 C-270.90554688 30.07828125 -270.45953125 29.5471875 -270 29 C-269.34 29 -268.68 29 -268 29 C-267.773125 28.2575 -267.54625 27.515 -267.3125 26.75 C-265.7410439 23.4574253 -264.00004284 22.02502891 -261 20 C-260.34 20 -259.68 20 -259 20 C-260.62702908 25.32482243 -262.48092095 30.27286548 -265.1328125 35.17578125 C-268.42641296 42.10421105 -268.43511485 52.6172426 -266.05859375 59.875 C-260.50634376 70.17886204 -250.89072678 76.44573656 -240 80 C-209.40638212 88.24196136 -173.49031919 83.298458 -143.64306641 74.75 C-140.89569768 73.97040304 -138.13863432 73.23452475 -135.37890625 72.5 C-130.58989808 71.1970301 -125.91801824 69.68153753 -121.25 68 C-120.54746094 67.7525 -119.84492188 67.505 -119.12109375 67.25 C-114.66802854 65.66375042 -110.33570685 63.8883577 -106 62 C-104.42927454 61.3494117 -102.85758514 60.70114784 -101.28515625 60.0546875 C-91.34174147 55.92402451 -81.81961611 51.51625419 -72.54296875 46.04296875 C-69.38196911 44.18076717 -66.1357932 42.54644998 -62.84545898 40.92651367 C-57.31665361 38.15077397 -52.05590788 34.83247706 -47.0625 31.1875 C-44 29 -44 29 -41 28 C-40.0409375 27.01 -40.0409375 27.01 -39.0625 26 C-36.94325285 23.94497246 -35.86252086 23.40893155 -33 23 C-33 22.34 -33 21.68 -33 21 C-33.62648438 20.79503906 -34.25296875 20.59007812 -34.8984375 20.37890625 C-36.12433594 19.97478516 -36.12433594 19.97478516 -37.375 19.5625 C-38.59316406 19.16224609 -38.59316406 19.16224609 -39.8359375 18.75390625 C-42 18 -42 18 -44 17 C-44 16.01 -44 15.02 -44 14 C-25.95249822 6.82425038 -25.95249822 6.82425038 -18.4453125 4.7578125 C-14.12152417 3.41785254 -9.963946 1.62390132 -5.78515625 -0.109375 C-3 -1 -3 -1 0 0 Z " fill="#F49420" transform="translate(481,133)"/>
<path d="M0 0 C1.0374939 0.00303635 1.0374939 0.00303635 2.09594727 0.00613403 C2.80243408 0.00517731 3.5089209 0.00422058 4.23681641 0.00323486 C5.7331552 0.00255321 7.22949694 0.00440649 8.72583008 0.00857544 C11.02374884 0.01392396 13.32147213 0.00863003 15.61938477 0.00222778 C17.06990603 0.00288857 18.52042718 0.00416974 19.97094727 0.00613403 C20.66260986 0.0041098 21.35427246 0.00208557 22.06689453 0 C26.91849503 0.0239943 26.91849503 0.0239943 28.03344727 1.13894653 C28.32602927 7.08762023 28.34748835 13.03874536 28.38354492 18.993927 C28.40011793 21.0038103 28.4274256 23.01363435 28.46557617 25.02322388 C28.52020257 27.9136731 28.54219612 30.80273892 28.55688477 33.69363403 C28.57955414 34.59371185 28.60222351 35.49378967 28.62557983 36.42114258 C28.61760275 38.76502419 28.56712827 40.85657171 28.03344727 43.13894653 C25.70458984 45.14260864 25.70458984 45.14260864 23.03344727 46.13894653 C21.95708008 46.59656372 20.88071289 47.05418091 19.77172852 47.52566528 C18.6412207 47.9549231 17.51071289 48.38418091 16.34594727 48.82644653 C15.20770508 49.26343872 14.06946289 49.70043091 12.89672852 50.15066528 C10.03344727 51.13894653 10.03344727 51.13894653 8.03344727 51.13894653 C8.03344727 51.79894653 8.03344727 52.45894653 8.03344727 53.13894653 C8.89969727 53.40707153 9.76594727 53.67519653 10.65844727 53.95144653 C13.95136691 55.11006641 16.94472601 56.52104492 20.03344727 58.13894653 C19.89282227 59.92019653 19.89282227 59.92019653 19.03344727 62.13894653 C16.48657227 63.92019653 16.48657227 63.92019653 13.28344727 65.63894653 C10.0911463 67.36876479 7.24411658 68.96275038 4.45532227 71.29519653 C2.03344727 73.13894653 2.03344727 73.13894653 -2.96655273 74.13894653 C-3.46155273 66.71394653 -3.46155273 66.71394653 -3.96655273 59.13894653 C-4.69358398 60.7180481 -5.42061523 62.29714966 -6.16967773 63.92410278 C-15.80747981 84.08720744 -15.80747981 84.08720744 -24.88452148 88.07254028 C-25.9015918 88.42445435 -26.91866211 88.77636841 -27.96655273 89.13894653 C-29.07643555 89.5836731 -30.18631836 90.02839966 -31.32983398 90.48660278 C-33.53628117 91.35951096 -35.75493781 92.20234937 -37.98608398 93.01004028 C-40.58091096 93.99287776 -42.95821583 95.08915892 -45.40405273 96.38894653 C-48.72774443 98.02163719 -51.30822905 98.77311416 -54.96655273 99.13894653 C-54.61707964 94.47930522 -53.11009119 91.58174363 -50.55639648 87.73269653 C-48.4787214 84.34307427 -46.72728244 80.82618074 -44.96655273 77.26394653 C-44.61633057 76.55617065 -44.2661084 75.84839478 -43.90527344 75.11917114 C-42.92276995 73.12718626 -41.94387762 71.13347626 -40.96655273 69.13894653 C-37.31722053 61.71714515 -33.48237126 54.4011293 -29.61938477 47.08889771 C-27.52784636 43.1246484 -25.44851079 39.15949002 -23.46655273 35.13894653 C-20.64125213 29.40762245 -17.6253499 23.77599151 -14.63867188 18.12771606 C-11.95258225 13.0395108 -9.32230693 7.93120962 -6.80639648 2.75613403 C-5.12585507 -0.47988525 -3.48826195 0.01725171 0 0 Z " fill="#0D578D" transform="translate(420.966552734375,95.86105346679688)"/>
<path d="M0 0 C30.18977951 -0.5948725 30.18977951 -0.5948725 40 4 C40.65395752 4.26683594 41.30791504 4.53367188 41.98168945 4.80859375 C44.46216164 6.27281345 45.2261997 7.6068468 46.578125 10.1328125 C47.01640625 10.93847656 47.4546875 11.74414062 47.90625 12.57421875 C48.3496875 13.41597656 48.793125 14.25773438 49.25 15.125 C49.93835938 16.39923828 49.93835938 16.39923828 50.640625 17.69921875 C51.77055881 19.79430436 52.8897933 21.8944137 54 24 C54.33 21.69 54.66 19.38 55 17 C55.33 17 55.66 17 56 17 C56.00386719 18.45019531 56.00386719 18.45019531 56.0078125 19.9296875 C56.27971282 29.08366507 57.67311619 34.39192752 63 42 C64.08618454 43.92432213 65.14871557 45.86218223 66.1875 47.8125 C69.11783169 54.32767997 69.11783169 54.32767997 74 59 C75.03515625 60.671875 75.03515625 60.671875 76.0625 62.75 C76.40410156 63.42546875 76.74570312 64.1009375 77.09765625 64.796875 C78.07444803 67.18176921 78.52541183 69.47269395 79 72 C75.44377352 73.20688849 71.87922162 74.38702677 68.3125 75.5625 C67.30509766 75.90474609 66.29769531 76.24699219 65.25976562 76.59960938 C63.79506836 77.07817383 63.79506836 77.07817383 62.30078125 77.56640625 C61.40528564 77.86490479 60.50979004 78.16340332 59.5871582 78.47094727 C56.65422273 79.07070863 54.83463959 78.94004208 52 78 C50.47631879 75.85074235 49.37903524 73.9714817 48.25 71.625 C47.91709961 70.96886719 47.58419922 70.31273437 47.24121094 69.63671875 C44.08693366 63.35739753 41.09508252 56.98952194 38.14550781 50.61181641 C35.97157243 45.92880556 33.62542798 41.44667081 31 37 C31.01160156 37.68707031 31.02320313 38.37414062 31.03515625 39.08203125 C31.04417969 39.98308594 31.05320312 40.88414062 31.0625 41.8125 C31.07410156 42.70582031 31.08570313 43.59914062 31.09765625 44.51953125 C31 47 31 47 30 50 C20.1 50 10.2 50 0 50 C0 33.5 0 17 0 0 Z " fill="#F39422" transform="translate(279,127)"/>
<path d="M0 0 C0.66 0.33 1.32 0.66 2 1 C2.0231211 13.89072255 2.04091389 26.7814402 2.05181217 39.67217922 C2.05704151 45.65719266 2.06414008 51.64219196 2.07543945 57.62719727 C2.08626653 63.39783429 2.09227645 69.16845768 2.09487724 74.93910408 C2.09673182 77.14602943 2.10035304 79.352954 2.10573006 81.55987358 C2.1129381 84.63946041 2.11399104 87.71899014 2.11352539 90.79858398 C2.11712067 91.72071182 2.12071594 92.64283966 2.12442017 93.59291077 C2.11405216 99.88594784 2.11405216 99.88594784 1 101 C-1.21855264 101.08783542 -3.43988496 101.10694609 -5.66015625 101.09765625 C-6.65685585 101.09553383 -6.65685585 101.09553383 -7.6736908 101.09336853 C-9.80333899 101.08775518 -11.93288339 101.07520054 -14.0625 101.0625 C-15.50325369 101.05748671 -16.94400903 101.05292351 -18.38476562 101.04882812 C-21.92321102 101.03778145 -25.46159539 101.02050792 -29 101 C-29.20869591 90.67331217 -29.36852619 80.34712723 -29.46630955 70.01875877 C-29.51324651 65.22252202 -29.57688387 60.4277296 -29.67895508 55.63232422 C-29.77687924 51.00268035 -29.83058393 46.37442366 -29.85389519 41.74382401 C-29.8705023 39.97901185 -29.90293568 38.21427422 -29.95157051 36.45005417 C-30.31791834 22.60801038 -30.31791834 22.60801038 -27.07492065 18.65118408 C-24.76407501 17.09831332 -22.56675027 16.05817589 -20 15 C-18.66362194 14.07525533 -17.34858364 13.11850284 -16.0625 12.125 C-13 10 -13 10 -11 10 C-11 9.34 -11 8.68 -11 8 C-9.5390625 6.7109375 -9.5390625 6.7109375 -7.625 5.375 C-6.99851562 4.92898437 -6.37203125 4.48296875 -5.7265625 4.0234375 C-4 3 -4 3 -2 3 C-2 2.34 -2 1.68 -2 1 C-1.34 0.67 -0.68 0.34 0 0 Z " fill="#165D90" transform="translate(447,172)"/>
<path d="M0 0 C-0.73297224 4.08812689 -2.68779289 7.59246587 -4.5625 11.25 C-5.28787428 12.682234 -6.01313125 14.11452743 -6.73828125 15.546875 C-7.11162598 16.28099609 -7.4849707 17.01511719 -7.86962891 17.77148438 C-9.67943155 21.3394927 -11.46388103 24.92009448 -13.25 28.5 C-13.88008004 29.76048081 -14.51028449 31.02089943 -15.140625 32.28125 C-15.75421875 33.5084375 -16.3678125 34.735625 -17 36 C-18.32 38.64 -19.64 41.28 -21 44 C-27.6 44 -34.2 44 -41 44 C-42.464375 41.504375 -43.92875 39.00875 -45.4375 36.4375 C-45.89825928 35.66591553 -46.35901855 34.89433105 -46.83374023 34.09936523 C-49.38616312 29.65344683 -50.62980994 26.12208429 -51 21 C-49.96101563 20.61328125 -48.92203125 20.2265625 -47.8515625 19.828125 C-32.33256683 14.08794802 -32.33256683 14.08794802 -17.3203125 7.16015625 C-15.29840587 6.14920294 -13.27544291 5.23819718 -11.1875 4.375 C-7.99936424 3.0896053 -7.99936424 3.0896053 -5.25 1.3125 C-3 0 -3 0 0 0 Z " fill="#0C578E" transform="translate(395,208)"/>
<path d="M0 0 C-0.59659534 4.87693014 -2.72887232 8.58213604 -5.0625 12.8125 C-5.88063657 14.32198012 -6.69699992 15.83242247 -7.51171875 17.34375 C-7.92599121 18.11203125 -8.34026367 18.8803125 -8.76708984 19.671875 C-11.06139235 24.00424503 -13.21136099 28.40959275 -15.34790039 32.8215332 C-18.60585993 39.45862671 -18.60585993 39.45862671 -21 42 C-21.99 42 -22.98 42 -24 42 C-24.99 37.71 -25.98 33.42 -27 29 C-28.485 29.495 -28.485 29.495 -30 30 C-30.37125 30.86625 -30.37125 30.86625 -30.75 31.75 C-32.3450194 34.62103492 -34.32698283 35.80189679 -37.05078125 37.55859375 C-39.14914055 39.02903094 -39.14914055 39.02903094 -41.2421875 41.3046875 C-44.52839656 44.51642157 -48.04789849 47.06958006 -51.8125 49.6875 C-52.55443604 50.20715332 -53.29637207 50.72680664 -54.06079102 51.26220703 C-60.98147437 56.06646673 -68.07202396 60.56946949 -75.26953125 64.9453125 C-76.82123904 65.89104862 -78.36433722 66.85087697 -79.90625 67.8125 C-85.11474453 71.02762008 -90.3715109 73.61329511 -96 76 C-97.79396304 76.80741705 -99.58552682 77.62018034 -101.375 78.4375 C-102.74591797 79.05818359 -102.74591797 79.05818359 -104.14453125 79.69140625 C-106.12822373 80.60048557 -108.10433876 81.5262097 -110.07421875 82.46484375 C-111.06035156 82.93019531 -112.04648437 83.39554687 -113.0625 83.875 C-113.96097656 84.30554688 -114.85945313 84.73609375 -115.78515625 85.1796875 C-116.88150391 85.58574219 -116.88150391 85.58574219 -118 86 C-118.66 85.67 -119.32 85.34 -120 85 C-118.02 84.505 -118.02 84.505 -116 84 C-116 83.34 -116 82.68 -116 82 C-114.515 81.505 -114.515 81.505 -113 81 C-112.566875 79.99646484 -112.566875 79.99646484 -112.125 78.97265625 C-111.75375 78.32167969 -111.3825 77.67070312 -111 77 C-108.6875 76.49609375 -108.6875 76.49609375 -106 76.4375 C-103.36466487 76.43244366 -103.36466487 76.43244366 -101 76 C-100.34 75.01 -99.68 74.02 -99 73 C-98.34 73 -97.68 73 -97 73 C-97 72.34 -97 71.68 -97 71 C-97.66 70.67 -98.32 70.34 -99 70 C-97.02 69.01 -97.02 69.01 -95 68 C-94.505 68.495 -94.505 68.495 -94 69 C-93.67 68.34 -93.34 67.68 -93 67 C-91.68 67.66 -90.36 68.32 -89 69 C-88.67 68.34 -88.34 67.68 -88 67 C-87.01 67.33 -86.02 67.66 -85 68 C-85 67.34 -85 66.68 -85 66 C-82.69 65.67 -80.38 65.34 -78 65 C-78 64.34 -78 63.68 -78 63 C-76.02 62.505 -76.02 62.505 -74 62 C-74 61.34 -74 60.68 -74 60 C-73.01 59.67 -72.02 59.34 -71 59 C-70.67 58.01 -70.34 57.02 -70 56 C-67.69 55.67 -65.38 55.34 -63 55 C-62.67 53.02 -62.34 51.04 -62 49 C-60.6078125 49.0928125 -60.6078125 49.0928125 -59.1875 49.1875 C-55.55696677 48.97393922 -55.31097017 48.52105837 -53 46 C-51.68 46 -50.36 46 -49 46 C-48.67 45.01 -48.34 44.02 -48 43 C-47.01 43 -46.02 43 -45 43 C-44.773125 42.4225 -44.54625 41.845 -44.3125 41.25 C-43 39 -43 39 -40.4375 37 C-37.91933482 34.93381319 -37.3380332 34.15497657 -37 31 C-36.34 31 -35.68 31 -35 31 C-34.67 30.34 -34.34 29.68 -34 29 C-36.31 29 -38.62 29 -41 29 C-39.74874616 25.24623848 -38.4347596 24.75926711 -35 23 C-34.34 23 -33.68 23 -33 23 C-33 22.34 -33 21.68 -33 21 C-33.62648438 20.79503906 -34.25296875 20.59007812 -34.8984375 20.37890625 C-35.71570313 20.10949219 -36.53296875 19.84007812 -37.375 19.5625 C-38.18710937 19.29566406 -38.99921875 19.02882812 -39.8359375 18.75390625 C-42 18 -42 18 -44 17 C-44 16.01 -44 15.02 -44 14 C-25.95249822 6.82425038 -25.95249822 6.82425038 -18.4453125 4.7578125 C-14.12152417 3.41785254 -9.963946 1.62390132 -5.78515625 -0.109375 C-3 -1 -3 -1 0 0 Z " fill="#E09C43" transform="translate(481,133)"/>
<path d="M0 0 C0 11.22 0 22.44 0 34 C-9.9 34 -19.8 34 -30 34 C-30 24.1 -30 14.2 -30 4 C-27.6075 3.71125 -25.215 3.4225 -22.75 3.125 C-16.55483446 2.36505969 -10.40516738 1.45595608 -4.2578125 0.3671875 C-2 0 -2 0 0 0 Z " fill="#175D90" transform="translate(309,239)"/>
<path d="M0 0 C-0.66498383 4.38889325 -2.18757677 7.9811485 -4 12 C-5.32 12 -6.64 12 -8 12 C-8.33 14.97 -8.66 17.94 -9 21 C-9.99 21 -10.98 21 -12 21 C-12.33 22.65 -12.66 24.3 -13 26 C-13.66 26 -14.32 26 -15 26 C-15.103125 26.78375 -15.20625 27.5675 -15.3125 28.375 C-16 31 -16 31 -19 33 C-21.32948536 30.67051464 -21.22479314 30.14278968 -21.375 27 C-21.53579929 24.87188114 -21.53579929 24.87188114 -22 23 C-23.93383287 21.69934079 -23.93383287 21.69934079 -26 21 C-26.75 18.875 -26.75 18.875 -27 17 C-27.99 17 -28.98 17 -30 17 C-30.99 16.34 -31.98 15.68 -33 15 C-32.67 14.34 -32.34 13.68 -32 13 C-29.4375 12.375 -29.4375 12.375 -27 12 C-27 11.01 -27 10.02 -27 9 C-24.54285453 8.16301614 -22.08441143 7.33027576 -19.625 6.5 C-18.92632812 6.26152344 -18.22765625 6.02304688 -17.5078125 5.77734375 C-12.2265625 4 -12.2265625 4 -10 4 C-10 3.34 -10 2.68 -10 2 C-3.375 0 -3.375 0 0 0 Z " fill="#F4941F" transform="translate(478,135)"/>
<path d="M0 0 C2.12560437 0.30836232 4.25047065 0.62181614 6.375 0.9375 C8.15003906 1.19853516 8.15003906 1.19853516 9.9609375 1.46484375 C13 2 13 2 15 3 C15.39396169 5.75218038 15.6611938 8.42301686 15.8515625 11.19140625 C15.91532074 12.01124496 15.97907898 12.83108368 16.04476929 13.67576599 C16.24710305 16.30408752 16.43618135 18.93317629 16.625 21.5625 C16.75954721 23.3405608 16.8949526 25.11855688 17.03125 26.89648438 C17.3657696 31.26359701 17.68236753 35.63149471 18 40 C25.92 39.67 33.84 39.34 42 39 C42 28.77 42 18.54 42 8 C69.68792711 6.81548975 69.68792711 6.81548975 80 7 C80 7.33 80 7.66 80 8 C71.92259664 9.35721459 63.92357312 10.24062308 55.75 10.6875 C54.91621826 10.73575928 54.08243652 10.78401855 53.22338867 10.83374023 C47.25096802 11.12548401 47.25096802 11.12548401 45 10 C45.00523682 10.96413818 45.01047363 11.92827637 45.01586914 12.92163086 C45.03392118 16.48672564 45.04543274 20.05181636 45.05493164 23.61694336 C45.0599714 25.16219766 45.0668032 26.70744716 45.07543945 28.25268555 C45.08752076 30.46925029 45.09323173 32.68575218 45.09765625 34.90234375 C45.10281754 35.5971434 45.10797882 36.29194305 45.11329651 37.00779724 C45.11349277 38.6722933 45.06189129 40.33665499 45 42 C44 43 44 43 41.13256836 43.11352539 C39.88096924 43.10828857 38.62937012 43.10305176 37.33984375 43.09765625 C36.34314415 43.09553383 36.34314415 43.09553383 35.3263092 43.09336853 C33.19666101 43.08775518 31.06711661 43.07520054 28.9375 43.0625 C27.49674631 43.05748671 26.05599097 43.05292351 24.61523438 43.04882812 C21.07678898 43.03778145 17.53840461 43.02050792 14 43 C12.44022936 39.88045872 12.87895874 36.57040616 12.90234375 33.1484375 C12.9037587 32.37440582 12.90517365 31.60037415 12.90663147 30.80288696 C12.91223597 28.32688558 12.92478917 25.85097412 12.9375 23.375 C12.94251442 21.69791797 12.94707743 20.02083453 12.95117188 18.34375 C12.96220685 14.22913194 12.97947446 10.11458122 13 6 C12.22116455 5.85506104 11.4423291 5.71012207 10.63989258 5.56079102 C8.01406585 5.002988 6.05386453 4.18084408 3.6875 2.9375 C2.99011719 2.57527344 2.29273438 2.21304688 1.57421875 1.83984375 C1.05472656 1.56269531 0.53523437 1.28554687 0 1 C0 0.67 0 0.34 0 0 Z " fill="#E0912D" transform="translate(213,230)"/>
<path d="M0 0 C30.18977951 -0.5948725 30.18977951 -0.5948725 40 4 C40.72703125 4.32226562 41.4540625 4.64453125 42.203125 4.9765625 C44.80251694 6.45708573 45.73745209 8.34200439 47 11 C46.67 11.66 46.34 12.32 46 13 C44.29115995 11.37660195 42.62553283 9.70680947 41 8 C41 7.34 41 6.68 41 6 C28.64228964 4.92206888 16.40412032 4.92295577 4 5 C3.67 19.19 3.34 33.38 3 48 C11.25 48 19.5 48 28 48 C28.33 43.71 28.66 39.42 29 35 C29.66 35.33 30.32 35.66 31 36 C31.02705729 37.77074917 31.04642195 39.54161711 31.0625 41.3125 C31.07410156 42.29863281 31.08570313 43.28476563 31.09765625 44.30078125 C31 47 31 47 30 50 C20.1 50 10.2 50 0 50 C0 33.5 0 17 0 0 Z " fill="#D98C2B" transform="translate(279,127)"/>
<path d="M0 0 C-1.62702908 5.32482243 -3.48092095 10.27286548 -6.1328125 15.17578125 C-8.25699357 19.64421621 -8.30025063 24.38333961 -8.5625 29.25 C-8.60568359 29.99507812 -8.64886719 30.74015625 -8.69335938 31.5078125 C-8.79896725 33.338349 -8.89994201 35.16915176 -9 37 C-9.66 36.67 -10.32 36.34 -11 36 C-11.34077348 33.32418734 -11.55977321 30.74940712 -11.6875 28.0625 C-11.73455078 27.32064453 -11.78160156 26.57878906 -11.83007812 25.81445312 C-12.13653699 20.27307398 -12.13653699 20.27307398 -11 18 C-11.66 18 -12.32 18 -13 18 C-13 18.66 -13 19.32 -13 20 C-13.62777344 20.24105469 -14.25554687 20.48210937 -14.90234375 20.73046875 C-17.55077404 22.33333624 -17.77619051 23.37002111 -18.5625 26.3125 C-19.62975643 29.90869014 -20.73593522 32.94843443 -23 36 C-23.66 36 -24.32 36 -25 36 C-25.02911321 39.0833134 -25.04683682 42.16659125 -25.0625 45.25 C-25.07087891 46.12269531 -25.07925781 46.99539062 -25.08789062 47.89453125 C-25.09111328 48.73886719 -25.09433594 49.58320313 -25.09765625 50.453125 C-25.10551147 51.61569824 -25.10551147 51.61569824 -25.11352539 52.80175781 C-25.08358664 55.02229279 -25.08358664 55.02229279 -24.36889648 57.15917969 C-24.24716064 57.76665039 -24.1254248 58.37412109 -24 59 C-24.66 59.66 -25.32 60.32 -26 61 C-30.12652856 49.39413842 -27.89011709 38.0298427 -23 27 C-20.38602038 22.07571494 -17.25834406 17.51530825 -14 13 C-13.45601562 12.21109375 -12.91203125 11.4221875 -12.3515625 10.609375 C-11.90554687 10.07828125 -11.45953125 9.5471875 -11 9 C-10.34 9 -9.68 9 -9 9 C-8.773125 8.2575 -8.54625 7.515 -8.3125 6.75 C-6.65039308 3.26749027 -4.13573795 0 0 0 Z " fill="#D89130" transform="translate(222,153)"/>
<path d="M0 0 C0.33 0 0.66 0 1 0 C2.85612776 13.15779407 3.11364799 25.86135183 2.625 39.125 C2.56654149 40.97001548 2.50924439 42.81506814 2.453125 44.66015625 C2.31539909 49.10731116 2.16220917 53.55367361 2 58 C2.5732753 58.01030746 3.1465506 58.02061493 3.73719788 58.03123474 C9.72358637 58.13972259 15.70983713 58.25428397 21.69604492 58.37231445 C23.92778633 58.41552824 26.15955793 58.45721245 28.39135742 58.49731445 C31.60604939 58.55534656 34.82059136 58.61894498 38.03515625 58.68359375 C39.52306419 58.70866249 39.52306419 58.70866249 41.04103088 58.73423767 C46.11645415 58.84187848 50.99402042 59.14591362 56 60 C56 60.33 56 60.66 56 61 C37.85 61 19.7 61 1 61 C-0.32953792 58.34092416 -0.11986031 56.33434632 -0.11352539 53.35693359 C-0.11344986 52.17586029 -0.11337433 50.99478699 -0.11329651 49.77792358 C-0.10813522 48.49769318 -0.10297394 47.21746277 -0.09765625 45.8984375 C-0.0962413 44.59170074 -0.09482635 43.28496399 -0.09336853 41.93862915 C-0.08954894 38.46323742 -0.07972342 34.98788743 -0.06866455 31.51251221 C-0.05843843 27.96668055 -0.05386833 24.42084215 -0.04882812 20.875 C-0.03810066 13.91664951 -0.02103092 6.95832676 0 0 Z " fill="#0D446E" transform="translate(255,123)"/>
<path d="M0 0 C-0.61415629 2.77942143 -1.45302611 5.14480458 -2.7421875 7.6796875 C-3.08636719 8.36160156 -3.43054688 9.04351562 -3.78515625 9.74609375 C-4.14480469 10.44863281 -4.50445312 11.15117187 -4.875 11.875 C-5.40287109 12.91720703 -5.40287109 12.91720703 -5.94140625 13.98046875 C-6.63226061 15.34419985 -7.32460096 16.70717938 -8.01855469 18.06933594 C-9.35902077 20.70625279 -10.68043682 23.35257449 -12 26 C-12.33 26 -12.66 26 -13 26 C-13 24.35 -13 22.7 -13 21 C-12.34 21 -11.68 21 -11 21 C-11 17.37 -11 13.74 -11 10 C-12.32 9.67 -13.64 9.34 -15 9 C-15.33 9.99 -15.66 10.98 -16 12 C-17.8125 12.66015625 -17.8125 12.66015625 -20 13.0625 C-22.14055297 13.42700873 -22.14055297 13.42700873 -24 14 C-24.33 14.66 -24.66 15.32 -25 16 C-28.375 16.75 -28.375 16.75 -32 17 C-32.99 16.34 -33.98 15.68 -35 15 C-34.39414062 14.76925781 -33.78828125 14.53851563 -33.1640625 14.30078125 C-27.7245834 12.18356861 -22.51369793 9.82196979 -17.3203125 7.16015625 C-15.29840587 6.14920294 -13.27544291 5.23819718 -11.1875 4.375 C-7.99936424 3.0896053 -7.99936424 3.0896053 -5.25 1.3125 C-3 0 -3 0 0 0 Z " fill="#255D87" transform="translate(395,208)"/>
<path d="M0 0 C0 0.33 0 0.66 0 1 C-8.07740336 2.35721459 -16.07642688 3.24062308 -24.25 3.6875 C-25.08378174 3.73575928 -25.91756348 3.78401855 -26.77661133 3.83374023 C-32.74903198 4.12548401 -32.74903198 4.12548401 -35 3 C-34.99214478 4.44620728 -34.99214478 4.44620728 -34.98413086 5.92163086 C-34.96607882 9.48672564 -34.95456726 13.05181636 -34.94506836 16.61694336 C-34.9400286 18.16219766 -34.9331968 19.70744716 -34.92456055 21.25268555 C-34.91247924 23.46925029 -34.90676827 25.68575218 -34.90234375 27.90234375 C-34.89718246 28.5971434 -34.89202118 29.29194305 -34.88670349 30.00779724 C-34.88650723 31.6722933 -34.93810871 33.33665499 -35 35 C-36 36 -36 36 -38.86743164 36.11352539 C-40.11903076 36.10828857 -41.37062988 36.10305176 -42.66015625 36.09765625 C-43.65685585 36.09553383 -43.65685585 36.09553383 -44.6736908 36.09336853 C-46.80333899 36.08775518 -48.93288339 36.07520054 -51.0625 36.0625 C-52.50325369 36.05748671 -53.94400903 36.05292351 -55.38476562 36.04882812 C-58.92321102 36.03778145 -62.46159539 36.02050792 -66 36 C-66 35.34 -66 34.68 -66 34 C-56.1 34 -46.2 34 -36 34 C-36.33 23.11 -36.66 12.22 -37 1 C-10.49658314 -0.18451025 -10.49658314 -0.18451025 0 0 Z " fill="#D9B174" transform="translate(293,237)"/>
<path d="M0 0 C0.33 0.66 0.66 1.32 1 2 C0.34 2 -0.32 2 -1 2 C-0.979375 2.928125 -0.95875 3.85625 -0.9375 4.8125 C-1 8 -1 8 -2 11 C0.31 11 2.62 11 5 11 C5 10.34 5 9.68 5 9 C6.32 9 7.64 9 9 9 C9 8.34 9 7.68 9 7 C11.31 7.33 13.62 7.66 16 8 C15.45601563 8.26941406 14.91203125 8.53882813 14.3515625 8.81640625 C12.67138057 9.66207922 11.00041881 10.5261725 9.3359375 11.40234375 C3.01536041 14.67937119 -3.09249784 17.25784238 -10 19 C-11 16 -11 16 -10.36328125 14.203125 C-10.01652344 13.55859375 -9.66976563 12.9140625 -9.3125 12.25 C-8.93867188 11.55261719 -8.56484375 10.85523438 -8.1796875 10.13671875 C-7.79039062 9.43160156 -7.40109375 8.72648438 -7 8 C-6.65195312 7.32582031 -6.30390625 6.65164062 -5.9453125 5.95703125 C-3.37484336 1.12494779 -3.37484336 1.12494779 0 0 Z " fill="#275F89" transform="translate(377,176)"/>
<path d="M0 0 C4.53897705 -0.02465392 9.07791543 -0.04283789 13.61694336 -0.05493164 C15.16219766 -0.0599714 16.70744716 -0.0668032 18.25268555 -0.07543945 C20.46925029 -0.08752076 22.68575218 -0.09323173 24.90234375 -0.09765625 C25.5971434 -0.10281754 26.29194305 -0.10797882 27.00779724 -0.11329651 C28.6722933 -0.11349277 30.33665499 -0.06189129 32 0 C33 1 33 1 33.11352539 4.96899414 C33.1133662 6.74105607 33.10766785 8.5131226 33.09765625 10.28515625 C33.0962413 11.21597519 33.09482635 12.14679413 33.09336853 13.1058197 C33.08775172 16.09141191 33.0751964 19.07693029 33.0625 22.0625 C33.05748716 24.08137913 33.05292388 26.10025943 33.04882812 28.11914062 C33.03777683 33.07945572 33.02050095 38.03971532 33 43 C32.67 43 32.34 43 32 43 C32 29.8 32 16.6 32 3 C21.44 3 10.88 3 0 3 C0 2.01 0 1.02 0 0 Z " fill="#849EB6" transform="translate(416,96)"/>
<path d="M0 0 C8.91 0 17.82 0 27 0 C27 0.33 27 0.66 27 1 C18.42 1 9.84 1 1 1 C1 16.84 1 32.68 1 49 C9.91 48.67 18.82 48.34 28 48 C28.33 43.71 28.66 39.42 29 35 C29.66 35.33 30.32 35.66 31 36 C31.02705729 37.77074917 31.04642195 39.54161711 31.0625 41.3125 C31.07410156 42.29863281 31.08570313 43.28476563 31.09765625 44.30078125 C31 47 31 47 30 50 C20.1 50 10.2 50 0 50 C0 33.5 0 17 0 0 Z " fill="#CCA56C" transform="translate(279,127)"/>
<path d="M0 0 C0 0.66 0 1.32 0 2 C-2.31 2 -4.62 2 -7 2 C-7.21914063 2.6391333 -7.43828125 3.2782666 -7.6640625 3.93676758 C-9 6 -9 6 -11.3984375 6.71362305 C-12.38070312 6.81199463 -13.36296875 6.91036621 -14.375 7.01171875 C-15.44234375 7.12966797 -16.5096875 7.24761719 -17.609375 7.36914062 C-19.28773438 7.52672852 -19.28773438 7.52672852 -21 7.6875 C-23.2086266 7.91777731 -25.41697781 8.15071638 -27.625 8.38671875 C-28.60726562 8.48170654 -29.58953125 8.57669434 -30.6015625 8.67456055 C-33.00847961 8.86970164 -33.00847961 8.86970164 -35 10 C-36.48100811 10.08963847 -37.96599424 10.11757925 -39.44970703 10.11352539 C-40.37051056 10.11344986 -41.29131409 10.11337433 -42.24002075 10.11329651 C-43.73382767 10.10555458 -43.73382767 10.10555458 -45.2578125 10.09765625 C-46.27600067 10.0962413 -47.29418884 10.09482635 -48.3432312 10.09336853 C-51.60385035 10.087759 -54.86440151 10.07520488 -58.125 10.0625 C-60.33203026 10.05748623 -62.53906159 10.05292311 -64.74609375 10.04882812 C-70.16408581 10.03778648 -75.58203805 10.02103905 -81 10 C-81 9.67 -81 9.34 -81 9 C-80.09572266 8.98541748 -79.19144531 8.97083496 -78.25976562 8.95581055 C-54.27498562 8.52577426 -30.89050897 7.77128572 -7.703125 0.98828125 C-4 0 -4 0 0 0 Z " fill="#E4BA81" transform="translate(340,208)"/>
<path d="M0 0 C0.66 0 1.32 0 2 0 C2 10.89 2 21.78 2 33 C-7.24 33 -16.48 33 -26 33 C-26 32.34 -26 31.68 -26 31 C-17.42 31 -8.84 31 0 31 C0 20.77 0 10.54 0 0 Z " fill="#174971" transform="translate(307,239)"/>
<path d="M0 0 C2.12560437 0.30836232 4.25047065 0.62181614 6.375 0.9375 C8.15003906 1.19853516 8.15003906 1.19853516 9.9609375 1.46484375 C13 2 13 2 15 3 C15 15.21 15 27.42 15 40 C14.01 40.495 14.01 40.495 13 41 C13 29.45 13 17.9 13 6 C11.35 5.67 9.7 5.34 8 5 C5.76171875 4.02734375 5.76171875 4.02734375 3.6875 2.9375 C2.99011719 2.57527344 2.29273438 2.21304688 1.57421875 1.83984375 C1.05472656 1.56269531 0.53523437 1.28554687 0 1 C0 0.67 0 0.34 0 0 Z " fill="#E4A858" transform="translate(213,230)"/>
<path d="M0 0 C0.33 0 0.66 0 1 0 C1.33 32.34 1.66 64.68 2 98 C2.66 98.33 3.32 98.66 4 99 C4 99.99 4 100.98 4 102 C3.01 102 2.02 102 1 102 C-0.13788734 99.72422532 -0.12342063 98.48966576 -0.12025452 95.96310425 C-0.12162918 95.11893951 -0.12300385 94.27477478 -0.12442017 93.4050293 C-0.12082489 92.477146 -0.11722961 91.5492627 -0.11352539 90.59326172 C-0.11367142 89.61761261 -0.11381744 88.6419635 -0.1139679 87.63674927 C-0.11326935 84.40103966 -0.10547966 81.1653871 -0.09765625 77.9296875 C-0.09579186 75.69052156 -0.09436806 73.45135521 -0.09336853 71.21218872 C-0.08954498 65.31027099 -0.07971607 59.40837776 -0.06866455 53.50646973 C-0.05844694 47.48738944 -0.05387016 41.4683052 -0.04882812 35.44921875 C-0.03809367 23.63280172 -0.02101918 11.81640289 0 0 Z " fill="#0D4975" transform="translate(228,102)"/>
<path d="M0 0 C0 0.66 0 1.32 0 2 C-1.7015625 2.2165625 -1.7015625 2.2165625 -3.4375 2.4375 C-6.80777201 2.61171478 -6.80777201 2.61171478 -8 4 C-17.84596583 5.20801805 -27.82947755 5.18635084 -37.73510742 5.18530273 C-40.09115721 5.18752705 -42.44676452 5.20587838 -44.80273438 5.22460938 C-46.31770676 5.22753787 -47.83268133 5.2295263 -49.34765625 5.23046875 C-50.39144188 5.24124702 -50.39144188 5.24124702 -51.45631409 5.25224304 C-55.41423224 5.2336567 -58.43431468 4.73827698 -62 3 C-62 2.67 -62 2.34 -62 2 C-61.06824951 2.00666183 -61.06824951 2.00666183 -60.11767578 2.01345825 C-53.62844147 2.0578472 -47.13925059 2.08793092 -40.64990234 2.10986328 C-38.2309392 2.1198951 -35.8119881 2.13352371 -33.39306641 2.15087891 C-29.90784727 2.17525107 -26.42278907 2.18651158 -22.9375 2.1953125 C-21.86322754 2.20563507 -20.78895508 2.21595764 -19.68212891 2.22659302 C-12.91322652 2.22759505 -6.56063647 0 0 0 Z " fill="#D99333" transform="translate(316,215)"/>
<path d="M0 0 C1.4800841 0.11362262 2.95910074 0.24122908 4.4375 0.375 C5.26121094 0.44460937 6.08492188 0.51421875 6.93359375 0.5859375 C7.95646484 0.79089844 7.95646484 0.79089844 9 1 C10.54578627 4.09157253 9.60277633 6.68473019 9 10 C8 11 8 11 4.5625 11.125 C1 11 1 11 -1 10 C-1.125 3.375 -1.125 3.375 0 0 Z " fill="#085590" transform="translate(421,151)"/>
<path d="M0 0 C-0.66 0 -1.32 0 -2 0 C-2 0.66 -2 1.32 -2 2 C-7.30129543 6.13759643 -12.27722114 8 -19 8 C-19 8.99 -19 9.98 -19 11 C-22.08120684 11.5339744 -25.16517859 12.04985551 -28.25 12.5625 C-29.12269531 12.71396484 -29.99539063 12.86542969 -30.89453125 13.02148438 C-32.16103516 13.2293457 -32.16103516 13.2293457 -33.453125 13.44140625 C-34.22817383 13.57232666 -35.00322266 13.70324707 -35.80175781 13.83813477 C-38.11173847 14.00822774 -39.80085213 13.68559092 -42 13 C-41.10474609 12.77957031 -41.10474609 12.77957031 -40.19140625 12.5546875 C-34.10468249 10.9810026 -28.17495765 9.09024905 -22.25 7 C-21.54174072 6.7510498 -20.83348145 6.50209961 -20.10375977 6.24560547 C-14.86552031 4.37519938 -9.6219937 2.45666317 -4.75 -0.25 C-3 -1 -3 -1 0 0 Z " fill="#DAA358" transform="translate(382,194)"/>
<path d="M0 0 C0 10.56 0 21.12 0 32 C-0.33 32 -0.66 32 -1 32 C-1.495 19.625 -1.495 19.625 -2 7 C-3.32 7.33 -4.64 7.66 -6 8 C-6.33 8.66 -6.66 9.32 -7 10 C-10.34489189 13.2162422 -13.47070534 13.5644909 -18 14 C-16.71034824 12.62437146 -15.37310707 11.29233607 -14 10 C-13.34 10 -12.68 10 -12 10 C-12 9.34 -12 8.68 -12 8 C-10.5390625 6.7109375 -10.5390625 6.7109375 -8.625 5.375 C-7.99851562 4.92898437 -7.37203125 4.48296875 -6.7265625 4.0234375 C-5 3 -5 3 -3 3 C-3 2.34 -3 1.68 -3 1 C-1 0 -1 0 0 0 Z " fill="#184C6D" transform="translate(448,172)"/>
<path d="M0 0 C-0.60698743 4.12751449 -2.03810791 7.3321148 -4 11 C-5.0326802 8.21176345 -5.04509293 7.1322726 -4.0625 4.25 C-3.5365625 3.13625 -3.5365625 3.13625 -3 2 C-4.0828125 2.495 -4.0828125 2.495 -5.1875 3 C-8.01697427 4.00603529 -10.02895466 4.16977402 -13 4 C-13 4.66 -13 5.32 -13 6 C-19.27681633 8.37688265 -25.45044429 10.51708173 -32 12 C-32.33 11.34 -32.66 10.68 -33 10 C-28.34451574 7.87467023 -23.74889506 6.30325573 -18.83203125 4.8984375 C-14.38261318 3.48689797 -10.09496425 1.67824501 -5.78515625 -0.109375 C-3 -1 -3 -1 0 0 Z " fill="#E0AB66" transform="translate(481,133)"/>
<path d="M0 0 C0.33 0.66 0.66 1.32 1 2 C0.35330586 3.34313399 -0.31903578 4.67391178 -1 6 C-1.309375 7.134375 -1.61875 8.26875 -1.9375 9.4375 C-2.92739119 12.75654692 -3.96996052 15.20869571 -6 18 C-6.66 18 -7.32 18 -8 18 C-8.02911321 21.0833134 -8.04683682 24.16659125 -8.0625 27.25 C-8.07087891 28.12269531 -8.07925781 28.99539062 -8.08789062 29.89453125 C-8.09111328 30.73886719 -8.09433594 31.58320313 -8.09765625 32.453125 C-8.10551147 33.61569824 -8.10551147 33.61569824 -8.11352539 34.80175781 C-8.08358664 37.02229279 -8.08358664 37.02229279 -7.36889648 39.15917969 C-7.24716064 39.76665039 -7.1254248 40.37412109 -7 41 C-7.66 41.66 -8.32 42.32 -9 43 C-13.16258285 31.29273573 -10.74693543 20.14497884 -6 9 C-4.22778949 5.78760905 -2.30541277 2.85205704 0 0 Z " fill="#DDAC65" transform="translate(205,171)"/>
<path d="M0 0 C-0.97057132 3.26464899 -1.59111681 4.71692702 -4.4375 6.6875 C-5.283125 7.120625 -6.12875 7.55375 -7 8 C-7.99 8.66 -8.98 9.32 -10 10 C-11.9896995 10.39013716 -13.99019869 10.73202649 -16 11 C-16 11.66 -16 12.32 -16 13 C-20.22949995 15.41685712 -23.12335991 16.34833144 -28 16 C-24.43746108 13.62497405 -20.78463495 11.4144767 -17.12939453 9.18554688 C-12.91993072 6.60339874 -8.83172444 3.88816677 -4.8046875 1.03125 C-3 0 -3 0 0 0 Z " fill="#DEA353" transform="translate(440,162)"/>
<path d="M0 0 C-0.99 1.485 -0.99 1.485 -2 3 C-2.66 2.67 -3.32 2.34 -4 2 C-4.061875 2.7425 -4.12375 3.485 -4.1875 4.25 C-5.27747922 7.93916043 -6.76380565 8.98636796 -10 11 C-13.3125 11.75 -13.3125 11.75 -16 12 C-16.33 10.68 -16.66 9.36 -17 8 C-13.375 5 -13.375 5 -10 5 C-9.7525 4.195625 -9.505 3.39125 -9.25 2.5625 C-8 0 -8 0 -6.125 -0.875 C-3.85501045 -1.0085288 -2.1564777 -0.69315355 0 0 Z " fill="#F3931E" transform="translate(448,162)"/>
<path d="M0 0 C1.98 0.66 3.96 1.32 6 2 C6.33 4.64 6.66 7.28 7 10 C14.92 9.505 14.92 9.505 23 9 C23 8.34 23 7.68 23 7 C25.31 7 27.62 7 30 7 C26.34138824 8.98291172 22.48741888 10.34082695 18.5625 11.6875 C17.90701172 11.92533203 17.25152344 12.16316406 16.57617188 12.40820312 C12.73006106 13.72367332 9.80954924 14.67833288 6 13 C4.19921875 10.56640625 4.19921875 10.56640625 2.6875 7.5625 C2.17574219 6.57378906 1.66398437 5.58507812 1.13671875 4.56640625 C0 2 0 2 0 0 Z " fill="#DEB06E" transform="translate(325,192)"/>
<path d="M0 0 C2.02754039 1.82478635 3.37028096 3.56776414 4.875 5.875 C9.67776144 12.93788447 15.53056018 16.19333277 23 20 C23 20.33 23 20.66 23 21 C20.03 20.67 17.06 20.34 14 20 C14 19.34 14 18.68 14 18 C13.01 18 12.02 18 11 18 C10.67 16.68 10.34 15.36 10 14 C9.01 14 8.02 14 7 14 C7 13.34 7 12.68 7 12 C5.68 12 4.36 12 3 12 C2.67 11.01 2.34 10.02 2 9 C1.34 8.67 0.68 8.34 0 8 C0 5.36 0 2.72 0 0 Z " fill="#DDA658" transform="translate(213,191)"/>
<path d="M0 0 C1.98 0.66 3.96 1.32 6 2 C5.859375 3.77734375 5.859375 3.77734375 5 6 C2.453125 7.81640625 2.453125 7.81640625 -0.75 9.5625 C-1.79671875 10.14128906 -2.8434375 10.72007812 -3.921875 11.31640625 C-4.93765625 11.87199219 -5.9534375 12.42757812 -7 13 C-8.67162897 13.99168259 -10.34015207 14.98872228 -12 16 C-12.33 15.34 -12.66 14.68 -13 14 C-13.66 14 -14.32 14 -15 14 C-15 12.35 -15 10.7 -15 9 C-11.04 9 -7.08 9 -3 9 C-3 8.34 -3 7.68 -3 7 C-1.68 7 -0.36 7 1 7 C0.67 4.69 0.34 2.38 0 0 Z " fill="#2D658A" transform="translate(435,152)"/>
<path d="M0 0 C0.66 0 1.32 0 2 0 C0.125 6.875 0.125 6.875 -1 8 C-2.4887186 8.08669432 -3.981445 8.10703494 -5.47265625 8.09765625 C-6.37177734 8.09443359 -7.27089844 8.09121094 -8.19726562 8.08789062 C-9.14279297 8.07951172 -10.08832031 8.07113281 -11.0625 8.0625 C-12.01189453 8.05798828 -12.96128906 8.05347656 -13.93945312 8.04882812 C-16.29303065 8.0370011 -18.64648477 8.02052025 -21 8 C-20.67 7.01 -20.34 6.02 -20 5 C-18.21142578 4.96132812 -18.21142578 4.96132812 -16.38671875 4.921875 C-14.8202758 4.86559561 -13.25387097 4.80824823 -11.6875 4.75 C-10.90181641 4.73582031 -10.11613281 4.72164062 -9.30664062 4.70703125 C-4.64973062 4.64516871 -4.64973062 4.64516871 -1.08203125 1.953125 C-0.72496094 1.30859375 -0.36789062 0.6640625 0 0 Z " fill="#285879" transform="translate(375,244)"/>
<path d="M0 0 C2.76654374 2.45366082 4.28597123 5.11655989 6 8.375 C8.98080435 15.13524454 8.98080435 15.13524454 14 20 C16.5093872 24.05289706 18.40523781 28.24190251 19 33 C17.515 32.505 17.515 32.505 16 32 C16.66 32 17.32 32 18 32 C17.566875 31.54109375 17.13375 31.0821875 16.6875 30.609375 C16.130625 29.99578125 15.57375 29.3821875 15 28.75 C14.443125 28.14671875 13.88625 27.5434375 13.3125 26.921875 C12 25 12 25 12 21 C11.01 20.67 10.02 20.34 9 20 C7.64391082 17.86568405 6.46036423 15.80311181 5.3125 13.5625 C4.99216797 12.96373047 4.67183594 12.36496094 4.34179688 11.74804688 C2 7.28914579 2 7.28914579 2 5 C1.34 5 0.68 5 0 5 C0 3.35 0 1.7 0 0 Z " fill="#B99054" transform="translate(339,166)"/>
<path d="M0 0 C-2.35813659 2.35813659 -3.66715073 2.55470372 -6.875 3.3125 C-12.26025751 4.68535145 -17.13815765 6.68190374 -22.17578125 9.01171875 C-25.28358828 10.09923629 -27.73141346 10.17863767 -31 10 C-30.67 9.34 -30.34 8.68 -30 8 C-27.35139573 7.40644386 -24.70802678 7.25790731 -22 7 C-22 6.01 -22 5.02 -22 4 C-19.47524538 2.73762269 -17.68799534 2.90143596 -14.875 2.9375 C-13.96492188 2.94652344 -13.05484375 2.95554688 -12.1171875 2.96484375 C-11.06917969 2.98224609 -11.06917969 2.98224609 -10 3 C-10 2.34 -10 1.68 -10 1 C-6.52674819 -0.1577506 -3.63932552 -0.06866652 0 0 Z " fill="#DBA860" transform="translate(361,219)"/>
<path d="M0 0 C0 3 0 3 -1 6 C-2.8125 6.66015625 -2.8125 6.66015625 -5 7.0625 C-7.14055297 7.42700873 -7.14055297 7.42700873 -9 8 C-9.33 8.66 -9.66 9.32 -10 10 C-13.375 10.75 -13.375 10.75 -17 11 C-17.99 10.34 -18.98 9.68 -20 9 C-19.39414062 8.76925781 -18.78828125 8.53851563 -18.1640625 8.30078125 C-11.9186828 5.8698873 -5.9467253 3.08723611 0 0 Z " fill="#2A5D7E" transform="translate(380,214)"/>
<path d="M0 0 C-2.89066059 9.59453303 -2.89066059 9.59453303 -6 13 C-6.33 11.68 -6.66 10.36 -7 9 C-7.99 9.33 -8.98 9.66 -10 10 C-10.33 11.65 -10.66 13.3 -11 15 C-11.66 15 -12.32 15 -13 15 C-13 15.66 -13 16.32 -13 17 C-13.99 16.67 -14.98 16.34 -16 16 C-15.21654285 14.82780457 -14.42297164 13.66236332 -13.625 12.5 C-13.18414062 11.8503125 -12.74328125 11.200625 -12.2890625 10.53125 C-11.65097656 9.77328125 -11.65097656 9.77328125 -11 9 C-10.34 9 -9.68 9 -9 9 C-8.773125 8.2575 -8.54625 7.515 -8.3125 6.75 C-6.65039308 3.26749027 -4.13573795 0 0 0 Z " fill="#E0B574" transform="translate(222,153)"/>
<path d="M0 0 C0 0.33 0 0.66 0 1 C-8.03437369 2.34998449 -15.99514255 3.23822868 -24.125 3.6875 C-24.94202393 3.73575928 -25.75904785 3.78401855 -26.60083008 3.83374023 C-27.37450928 3.87184814 -28.14818848 3.90995605 -28.9453125 3.94921875 C-29.97422607 4.00082153 -29.97422607 4.00082153 -31.02392578 4.0534668 C-33.14561234 3.99606016 -34.9655925 3.58609363 -37 3 C-37 2.34 -37 1.68 -37 1 C-11.0298471 -0.19388403 -11.0298471 -0.19388403 0 0 Z " fill="#E1A862" transform="translate(293,237)"/>
<path d="M0 0 C0.66 0.33 1.32 0.66 2 1 C-0.37154026 4.82081487 -2.96393384 6.15013634 -7 8 C-7.99 8.66 -8.98 9.32 -10 10 C-14.47911241 11.52120799 -18.27276994 12.23059659 -23 12 C-20.52702111 10.35134741 -18.26275922 9.11698901 -15.5859375 7.87109375 C-14.32136719 7.27844727 -14.32136719 7.27844727 -13.03125 6.67382812 C-12.1546875 6.26583984 -11.278125 5.85785156 -10.375 5.4375 C-8.6318968 4.62566112 -6.88966021 3.81195807 -5.1484375 2.99609375 C-4.37677246 2.63700928 -3.60510742 2.2779248 -2.81005859 1.90795898 C-1.02796883 1.1329688 -1.02796883 1.1329688 0 0 Z " fill="#DB9438" transform="translate(405,181)"/>
<path d="M0 0 C1.06863281 0.01804688 2.13726562 0.03609375 3.23828125 0.0546875 C4.04652344 0.07789063 4.85476563 0.10109375 5.6875 0.125 C-3.08489845 4.93149841 -13.42176046 6.72129635 -23.3125 7.125 C-20.81744038 4.62994038 -19.63921112 4.76551624 -16.1875 4.5 C-15.27742188 4.42523438 -14.36734375 4.35046875 -13.4296875 4.2734375 C-12.38167969 4.19996094 -12.38167969 4.19996094 -11.3125 4.125 C-11.3125 3.465 -11.3125 2.805 -11.3125 2.125 C-7.38392246 0.27368517 -4.32474888 -0.09504943 0 0 Z " fill="#E2B16F" transform="translate(321.3125,229.875)"/>
<path d="M0 0 C0 0.66 0 1.32 0 2 C-10.42948534 4.91026357 -19.15689364 6.73489702 -30 5 C-26.57302189 2.71534793 -24.98559899 2.69299638 -20.9375 2.5 C-15.85769359 2.18818153 -11.07595611 1.547059 -6.12109375 0.40234375 C-4 0 -4 0 0 0 Z " fill="#E39632" transform="translate(310,232)"/>
<path d="M0 0 C-0.66498383 4.38889325 -2.18757677 7.9811485 -4 12 C-4.33 12 -4.66 12 -5 12 C-5 10.35 -5 8.7 -5 7 C-6.32 6.67 -7.64 6.34 -9 6 C-9.33 4.68 -9.66 3.36 -10 2 C-3.375 0 -3.375 0 0 0 Z " fill="#E8942A" transform="translate(478,135)"/>
<path d="M0 0 C0 0.66 0 1.32 0 2 C-2.5 3.5 -2.5 3.5 -5 5 C-5.721875 5.7425 -6.44375 6.485 -7.1875 7.25 C-11.07974177 11.05574751 -15.49539244 13.96485665 -20 17 C-20.33 16.01 -20.66 15.02 -21 14 C-20.34 13.34 -19.68 12.68 -19 12 C-17.68 12 -16.36 12 -15 12 C-14.67 11.01 -14.34 10.02 -14 9 C-13.01 9 -12.02 9 -11 9 C-10.773125 8.4225 -10.54625 7.845 -10.3125 7.25 C-8.18037706 3.59493211 -4.43087901 0 0 0 Z " fill="#D39F5B" transform="translate(447,167)"/>
<path d="M0 0 C0.66 0.33 1.32 0.66 2 1 C2 1.66 2 2.32 2 3 C1.01 3 0.02 3 -1 3 C-1.04898437 3.61488281 -1.09796875 4.22976562 -1.1484375 4.86328125 C-1.22320312 5.67152344 -1.29796875 6.47976562 -1.375 7.3125 C-1.44460938 8.11300781 -1.51421875 8.91351563 -1.5859375 9.73828125 C-2 12 -2 12 -4 15 C-4.66 15 -5.32 15 -6 15 C-6 16.32 -6 17.64 -6 19 C-7.32 18.67 -8.64 18.34 -10 18 C-8.52380364 15.18593119 -7.04354757 12.37401822 -5.5625 9.5625 C-5.14162109 8.76005859 -4.72074219 7.95761719 -4.28710938 7.13085938 C-3.88427734 6.36708984 -3.48144531 5.60332031 -3.06640625 4.81640625 C-2.69459229 4.10943604 -2.32277832 3.40246582 -1.93969727 2.67407227 C-1 1 -1 1 0 0 Z " fill="#3D698B" transform="translate(386,154)"/>
<path d="M0 0 C-0.7115625 0.8353125 -0.7115625 0.8353125 -1.4375 1.6875 C-3.12395996 4.18346074 -3.58953107 6.0446237 -4 9 C-5.3921875 8.690625 -5.3921875 8.690625 -6.8125 8.375 C-10.15173402 7.63307034 -10.15173402 7.63307034 -13 10 C-11.68745073 6.0623522 -10.1247232 3.7341328 -7 1 C-4.53721199 -0.231394 -2.7204945 -0.07159196 0 0 Z " fill="#E89735" transform="translate(416,178)"/>
<path d="M0 0 C0 0.66 0 1.32 0 2 C-2.31 2 -4.62 2 -7 2 C-7.18304688 2.64453125 -7.36609375 3.2890625 -7.5546875 3.953125 C-9 6 -9 6 -12.2578125 6.609375 C-13.53398437 6.65578125 -14.81015625 6.7021875 -16.125 6.75 C-17.40632813 6.80671875 -18.68765625 6.8634375 -20.0078125 6.921875 C-21.48894531 6.96054688 -21.48894531 6.96054688 -23 7 C-23 6.34 -23 5.68 -23 5 C-19.91882573 4.15854044 -16.83474379 3.32826938 -13.75 2.5 C-12.87730469 2.26152344 -12.00460937 2.02304688 -11.10546875 1.77734375 C-10.26113281 1.55175781 -9.41679687 1.32617188 -8.546875 1.09375 C-7.77182617 0.88427734 -6.99677734 0.67480469 -6.19824219 0.45898438 C-4 0 -4 0 0 0 Z " fill="#E1AB5E" transform="translate(340,208)"/>
<path d="M0 0 C0 0.66 0 1.32 0 2 C-2.31 2.66 -4.62 3.32 -7 4 C-7 4.66 -7 5.32 -7 6 C-9.31 5.67 -11.62 5.34 -14 5 C-14 4.01 -14 3.02 -14 2 C-8.79666866 -0.24281523 -5.65735415 -1.55577239 0 0 Z " fill="#D69A4E" transform="translate(451,145)"/>
<path d="M0 0 C0.33 0 0.66 0 1 0 C1 13.53 1 27.06 1 41 C-0.65 41 -2.3 41 -4 41 C-3.5155542 40.51499023 -3.0311084 40.02998047 -2.53198242 39.53027344 C-0.3750757 35.96785411 -0.5210801 32.56386674 -0.48828125 28.515625 C-0.46135445 27.29223419 -0.46135445 27.29223419 -0.43388367 26.04412842 C-0.3798198 23.44613777 -0.34589818 20.84833042 -0.3125 18.25 C-0.27932339 16.4856516 -0.24483341 14.72132737 -0.20898438 12.95703125 C-0.1240958 8.63815317 -0.05726623 4.31932908 0 0 Z " fill="#184C71" transform="translate(447,99)"/>
<path d="M0 0 C0 0.99 0 1.98 0 3 C-4.29 3.99 -8.58 4.98 -13 6 C-13 8.31 -13 10.62 -13 13 C-15.76223278 10.23776722 -15.57856291 7.79293383 -16 4 C-13.90049414 3.13444052 -11.7952093 2.28288723 -9.6875 1.4375 C-8.51574219 0.96183594 -7.34398437 0.48617187 -6.13671875 -0.00390625 C-3 -1 -3 -1 0 0 Z " fill="#3F6B8D" transform="translate(360,225)"/>
<path d="M0 0 C4.62 0.66 9.24 1.32 14 2 C13.34 2.66 12.68 3.32 12 4 C13.98 4.66 15.96 5.32 18 6 C17.67 6.66 17.34 7.32 17 8 C15.906875 7.62875 14.81375 7.2575 13.6875 6.875 C11.8621875 6.441875 11.8621875 6.441875 10 6 C9.01 6.66 8.02 7.32 7 8 C6.01 7.67 5.02 7.34 4 7 C4 6.34 4 5.68 4 5 C2.68 3.35 1.36 1.7 0 0 Z " fill="#F29828" transform="translate(245,214)"/>
<path d="M0 0 C0 0.66 0 1.32 0 2 C-0.99 2 -1.98 2 -3 2 C-3.33 3.65 -3.66 5.3 -4 7 C-6.64 6.67 -9.28 6.34 -12 6 C-11.8125 4.125 -11.8125 4.125 -11 2 C-7.3382625 -0.09242143 -4.15467129 -0.19324053 0 0 Z " fill="#396888" transform="translate(261,206)"/>
<path d="M0 0 C1.98 0.99 1.98 0.99 4 2 C4 3.32 4 4.64 4 6 C4.5775 6.061875 5.155 6.12375 5.75 6.1875 C8.98687077 7.35637 10.19549047 9.12615149 12 12 C11.75 14.3125 11.75 14.3125 11 16 C6.95323347 14.65107782 6.44196781 12.79276841 4.375 9.125 C3.76398438 8.05507812 3.15296875 6.98515625 2.5234375 5.8828125 C1 3 1 3 0 0 Z " fill="#1D5573" transform="translate(342,170)"/>
<path d="M0 0 C0.66 0.33 1.32 0.66 2 1 C2 3 2 3 0.609375 4.54296875 C-0.00421875 5.08566406 -0.6178125 5.62835938 -1.25 6.1875 C-1.85328125 6.73792969 -2.4565625 7.28835937 -3.078125 7.85546875 C-5 9 -5 9 -9 8 C-9 12.62 -9 17.24 -9 22 C-9.33 22 -9.66 22 -10 22 C-10.52820158 16.87448834 -10.81197955 12.10692403 -10 7 C-7.41320418 3.98207154 -4.6174846 2.54546601 -1 1 C-0.67 0.67 -0.34 0.34 0 0 Z " fill="#3D6888" transform="translate(428,186)"/>
<path d="M0 0 C-2.54023648 1.12832357 -5.08208838 2.25273428 -7.625 3.375 C-8.33785156 3.69210938 -9.05070312 4.00921875 -9.78515625 4.3359375 C-13.80459396 6.10596512 -17.80107481 7.68866374 -22 9 C-21.67 8.34 -21.34 7.68 -21 7 C-20.01 7 -19.02 7 -18 7 C-18 6.34 -18 5.68 -18 5 C-17.01 4.67 -16.02 4.34 -15 4 C-14.70996094 3.33613281 -14.41992188 2.67226562 -14.12109375 1.98828125 C-13 0 -13 0 -10.72265625 -0.64453125 C-9.84480469 -0.69996094 -8.96695312 -0.75539062 -8.0625 -0.8125 C-6.74958984 -0.91498047 -6.74958984 -0.91498047 -5.41015625 -1.01953125 C-3 -1 -3 -1 0 0 Z " fill="#DFAD60" transform="translate(383,210)"/>
<path d="M0 0 C0.33 0 0.66 0 1 0 C1 1.65 1 3.3 1 5 C1.9590625 5.2165625 1.9590625 5.2165625 2.9375 5.4375 C5 6 5 6 6 7 C6.04080783 8.99958364 6.04254356 11.00045254 6 13 C5.01 12.34 4.02 11.68 3 11 C0.84725052 11.30840599 0.84725052 11.30840599 -1 12 C-1.08159574 7.83861737 -0.98248524 4.0527516 0 0 Z " fill="#ED982B" transform="translate(451,151)"/>
<path d="M0 0 C5.875 0.875 5.875 0.875 7 2 C7.04080783 3.99958364 7.04254356 6.00045254 7 8 C5.68 8 4.36 8 3 8 C3 8.66 3 9.32 3 10 C2.34 10 1.68 10 1 10 C1.03255208 7.98177083 1.06510417 5.96354167 1.09765625 3.9453125 C1.12649242 1.91814596 1.12649242 1.91814596 0 0 Z " fill="#0D4E7D" transform="translate(429,151)"/>
<path d="M0 0 C-0.639375 0.28875 -1.27875 0.5775 -1.9375 0.875 C-4.15206079 1.82823451 -4.15206079 1.82823451 -5 4 C-8.34489189 7.2162422 -11.47070534 7.5644909 -16 8 C-14.71034824 6.62437146 -13.37310707 5.29233607 -12 4 C-11.34 4 -10.68 4 -10 4 C-10 3.34 -10 2.68 -10 2 C-6.68331088 -1.44425408 -4.47647118 -1.11911779 0 0 Z " fill="#2C618B" transform="translate(446,178)"/>
<path d="M0 0 C6.24704863 0.45433081 11.60279094 1.69379891 17 5 C19.125 7.625 19.125 7.625 20 10 C19.67 10.66 19.34 11.32 19 12 C17.29115995 10.37660195 15.62553283 8.70680947 14 7 C14 6.34 14 5.68 14 5 C13.030625 4.855625 12.06125 4.71125 11.0625 4.5625 C8 4 8 4 7 3 C5.65252916 2.76924918 4.29622435 2.58846937 2.9375 2.4375 C1.638125 2.293125 0.33875 2.14875 -1 2 C-0.67 1.34 -0.34 0.68 0 0 Z " fill="#D9AA63" transform="translate(306,128)"/>
<path d="M0 0 C0.33 0 0.66 0 1 0 C1.07486346 3.89289974 0.99215843 7.25184594 0 11 C-0.3662999 12.91438489 -0.71986402 14.83123849 -1.0625 16.75 C-1.23910156 17.73484375 -1.41570312 18.7196875 -1.59765625 19.734375 C-1.73042969 20.48203125 -1.86320313 21.2296875 -2 22 C-2.33 22 -2.66 22 -3 22 C-3.02705308 19.58325776 -3.04686438 17.1668206 -3.0625 14.75 C-3.07087891 14.06808594 -3.07925781 13.38617188 -3.08789062 12.68359375 C-3.10428392 9.30657446 -3.05628768 6.22708361 -2 3 C-1.34 3 -0.68 3 0 3 C0 2.01 0 1.02 0 0 Z " fill="#E39128" transform="translate(199,186)"/>
<path d="M0 0 C0 1.65 0 3.3 0 5 C-1.32 5.33 -2.64 5.66 -4 6 C-4 6.66 -4 7.32 -4 8 C-5.8125 9.0625 -5.8125 9.0625 -8 10 C-8.99 9.67 -9.98 9.34 -11 9 C-9.625 7.5 -9.625 7.5 -8 6 C-7.34 6 -6.68 6 -6 6 C-5.9175 5.38125 -5.835 4.7625 -5.75 4.125 C-5 2 -5 2 -3 0.75 C-1 0 -1 0 0 0 Z " fill="#E8942B" transform="translate(369,209)"/>
<path d="M0 0 C0.66 0.33 1.32 0.66 2 1 C2 1.99 2 2.98 2 4 C-4.8165735 5.7879537 -10.96517526 6.23668569 -18 6 C-18 5.67 -18 5.34 -18 5 C-15.75113762 4.49490792 -13.50086131 3.99610821 -11.25 3.5 C-9.99703125 3.2215625 -8.7440625 2.943125 -7.453125 2.65625 C-4 2 -4 2 0 2 C0 1.34 0 0.68 0 0 Z " fill="#5A839C" transform="translate(307,207)"/>
<path d="M0 0 C0.33 0.66 0.66 1.32 1 2 C-0.24125182 4.61161731 -1.5310524 7.10501786 -2.9375 9.625 C-3.32357422 10.33140625 -3.70964844 11.0378125 -4.10742188 11.765625 C-5.06448696 13.51433651 -6.03134031 15.25768432 -7 17 C-7.33 17 -7.66 17 -8 17 C-8 15.35 -8 13.7 -8 12 C-7.34 12 -6.68 12 -6 12 C-5.97873047 11.07767578 -5.97873047 11.07767578 -5.95703125 10.13671875 C-5.81117256 7.66500527 -5.60506817 5.40322852 -5 3 C-2.4375 0.9375 -2.4375 0.9375 0 0 Z " fill="#E4AF66" transform="translate(475,144)"/>
<path d="M0 0 C0.99 0 1.98 0 3 0 C3 0.66 3 1.32 3 2 C2.01 1.67 1.02 1.34 0 1 C0 0.67 0 0.34 0 0 Z M-5 1 C-2.03 1.495 -2.03 1.495 1 2 C1.33 5.96 1.66 9.92 2 14 C-0.36543716 11.63456284 -1.27541323 9.42932795 -2.625 6.375 C-3.07101562 5.37210938 -3.51703125 4.36921875 -3.9765625 3.3359375 C-4.31429688 2.56507813 -4.65203125 1.79421875 -5 1 Z " fill="#E3A751" transform="translate(323,178)"/>
<path d="M0 0 C0.98484375 0.38929688 1.9696875 0.77859375 2.984375 1.1796875 C4.10585938 1.64761719 4.10585938 1.64761719 5.25 2.125 C0.60601989 3.67299337 -4.07517708 3.62094333 -8.75 2.125 C-9.08 3.115 -9.41 4.105 -9.75 5.125 C-9.75 3.475 -9.75 1.825 -9.75 0.125 C-6.01127248 -2.4208954 -4.05518448 -1.64138419 0 0 Z " fill="#2A628A" transform="translate(429.75,148.875)"/>
<path d="M0 0 C-0.99 0 -1.98 0 -3 0 C-3 0.66 -3 1.32 -3 2 C-12.28013777 4.51664753 -12.28013777 4.51664753 -16 4 C-17.35906529 3.03526205 -18.69615032 2.03814922 -20 1 C-17.41765641 0.63667026 -14.83460218 0.28405133 -12.25 -0.0625 C-11.52039063 -0.16626953 -10.79078125 -0.27003906 -10.0390625 -0.37695312 C-6.3892704 -0.85806208 -3.52327086 -1.04532842 0 0 Z " fill="#316183" transform="translate(299,242)"/>
<path d="M0 0 C0.66 0.33 1.32 0.66 2 1 C2 1.33 2 1.66 2 2 C6.95 2.99 11.9 3.98 17 5 C17 5.99 17 6.98 17 8 C10.13523882 6.91081033 4.22529789 5.09761199 -2 2 C-1.34 1.34 -0.68 0.68 0 0 Z " fill="#497294" transform="translate(232,203)"/>
<path d="M0 0 C6.625 -0.125 6.625 -0.125 10 1 C10.33 2.65 10.66 4.3 11 6 C13.97 6.495 13.97 6.495 17 7 C16.67 7.66 16.34 8.32 16 9 C13.66705225 9.04241723 11.33297433 9.04092937 9 9 C8 8 8 8 7.9375 4.9375 C7.958125 3.968125 7.97875 2.99875 8 2 C5.36 1.67 2.72 1.34 0 1 C0 0.67 0 0.34 0 0 Z " fill="#4A7A95" transform="translate(271,205)"/>
<path d="M0 0 C0 3.96 0 7.92 0 12 C-0.33 12 -0.66 12 -1 12 C-1 10.02 -1 8.04 -1 6 C-3.31 6 -5.62 6 -8 6 C-7 3 -7 3 -4 1.3125 C-1 0 -1 0 0 0 Z " fill="#0B5183" transform="translate(447,178)"/>
<path d="M0 0 C-0.60698743 4.12751449 -2.03810791 7.3321148 -4 11 C-5.0326802 8.21176345 -5.04509293 7.1322726 -4.0625 4.25 C-3.711875 3.5075 -3.36125 2.765 -3 2 C-3.61875 2.20625 -4.2375 2.4125 -4.875 2.625 C-5.57625 2.74875 -6.2775 2.8725 -7 3 C-7.66 2.34 -8.32 1.68 -9 1 C-3.375 -1.125 -3.375 -1.125 0 0 Z " fill="#DBB97F" transform="translate(481,133)"/>
<path d="M0 0 C0.66 0.33 1.32 0.66 2 1 C1.22095672 11.55808656 1.22095672 11.55808656 -1 16 C-1.66 15.67 -2.32 15.34 -3 15 C-2.67 14.175 -2.34 13.35 -2 12.5 C-0.83587271 8.42555447 -0.92850118 5.21843053 -1 1 C-0.67 0.67 -0.34 0.34 0 0 Z " fill="#39678E" transform="translate(363,155)"/>
<path d="M0 0 C0.33 0.99 0.66 1.98 1 3 C1.66 3 2.32 3 3 3 C3.33 6.63 3.66 10.26 4 14 C3.01 14.66 2.02 15.32 1 16 C0.08342019 10.61509359 -0.11138159 5.45769811 0 0 Z " fill="#33668C" transform="translate(361,134)"/>
<path d="M0 0 C2.31 0 4.62 0 7 0 C7 0.99 7 1.98 7 3 C4.0936485 5.80255323 3.21174952 6 -1 6 C-0.67 4.02 -0.34 2.04 0 0 Z " fill="#E09C3E" transform="translate(419,182)"/>
<path d="M0 0 C0.66 0 1.32 0 2 0 C2 0.99 2 1.98 2 3 C1.34 3 0.68 3 0 3 C0 3.99 0 4.98 0 6 C-0.61875 6.12375 -1.2375 6.2475 -1.875 6.375 C-4.19120832 6.87197356 -4.19120832 6.87197356 -6 9 C-6.6875 7.1875 -6.6875 7.1875 -7 5 C-5.8125 3.25 -5.8125 3.25 -4 2 C-2.68 2 -1.36 2 0 2 C0 1.34 0 0.68 0 0 Z M-7 9 C-6.67 9.66 -6.34 10.32 -6 11 C-6.66 10.67 -7.32 10.34 -8 10 C-7.67 9.67 -7.34 9.34 -7 9 Z " fill="#0B5082" transform="translate(412,113)"/>
<path d="M0 0 C0 0.66 0 1.32 0 2 C-0.66 2.66 -1.32 3.32 -2 4 C-2.43957031 4.52207031 -2.87914062 5.04414063 -3.33203125 5.58203125 C-5.47324892 7.402317 -6.91182394 7.48636405 -9.6875 7.6875 C-10.49574219 7.75324219 -11.30398438 7.81898438 -12.13671875 7.88671875 C-13.05904297 7.94279297 -13.05904297 7.94279297 -14 8 C-13.01 7.34 -12.02 6.68 -11 6 C-10.27683594 5.50242188 -9.55367188 5.00484375 -8.80859375 4.4921875 C-8.02613281 3.95851562 -7.24367188 3.42484375 -6.4375 2.875 C-5.65246094 2.33617187 -4.86742187 1.79734375 -4.05859375 1.2421875 C-2 0 -2 0 0 0 Z " fill="#DEAC6A" transform="translate(426,170)"/>
<path d="M0 0 C0.66 0.33 1.32 0.66 2 1 C2.02705729 2.77074917 2.04642195 4.54161711 2.0625 6.3125 C2.07410156 7.29863281 2.08570313 8.28476563 2.09765625 9.30078125 C2 12 2 12 1 15 C-0.65 15 -2.3 15 -4 15 C-4 14.34 -4 13.68 -4 13 C-3.01 13 -2.02 13 -1 13 C-0.67 8.71 -0.34 4.42 0 0 Z " fill="#DAA55D" transform="translate(308,162)"/>
<path d="M0 0 C0.66 0 1.32 0 2 0 C1.34 2.31 0.68 4.62 0 7 C-5.28 6.67 -10.56 6.34 -16 6 C-16 5.67 -16 5.34 -16 5 C-15.09636719 4.97421875 -14.19273437 4.9484375 -13.26171875 4.921875 C-12.08222656 4.86515625 -10.90273438 4.8084375 -9.6875 4.75 C-7.92986328 4.68039063 -7.92986328 4.68039063 -6.13671875 4.609375 C-2.90571512 4.31411442 -2.90571512 4.31411442 -1.20703125 1.953125 C-0.80871094 1.30859375 -0.41039062 0.6640625 0 0 Z " fill="#275D89" transform="translate(375,244)"/>
<path d="M0 0 C0.66 0 1.32 0 2 0 C2 5.28 2 10.56 2 16 C3.32 16.66 4.64 17.32 6 18 C4.35 18.33 2.7 18.66 1 19 C0.93941406 17.95199219 0.87882812 16.90398437 0.81640625 15.82421875 C0.73198262 14.44529952 0.64733553 13.06639395 0.5625 11.6875 C0.52318359 10.99720703 0.48386719 10.30691406 0.44335938 9.59570312 C0.25072585 6.52838465 -0.02322717 3.93031848 -1 1 C-0.67 0.67 -0.34 0.34 0 0 Z " fill="#577992" transform="translate(417,151)"/>
<path d="M0 0 C0.99 0.33 1.98 0.66 3 1 C2.34 1 1.68 1 1 1 C1 1.66 1 2.32 1 3 C-2.32127851 5.76773209 -3.98431692 7.07523578 -8.375 6.75 C-9.24125 6.5025 -10.1075 6.255 -11 6 C-10.484375 5.7525 -9.96875 5.505 -9.4375 5.25 C-7.08937386 4.08590712 -7.08937386 4.08590712 -5.28125 2.94140625 C-3.56275368 1.88919134 -1.78244203 0.93983307 0 0 Z " fill="#E0AF67" transform="translate(379,193)"/>
<path d="M0 0 C1.1446875 0.495 1.1446875 0.495 2.3125 1 C4.99069135 2.17436686 4.99069135 2.17436686 8 2 C9.6875 3.5 9.6875 3.5 11 5 C10.34 5 9.68 5 9 5 C8.67 6.32 8.34 7.64 8 9 C5.06799526 6.14723863 2.35684596 3.34920216 0 0 Z " fill="#467598" transform="translate(322,128)"/>
<path d="M0 0 C0.33 0 0.66 0 1 0 C1.20086443 3.71599191 1.1519437 4.77208445 -1 8 C0.32 8.33 1.64 8.66 3 9 C0.69 9.66 -1.62 10.32 -4 11 C-3.49172849 6.62886504 -2.54826592 3.61004338 0 0 Z " fill="#687C94" transform="translate(370,184)"/>
<path d="M0 0 C0.66 0.99 1.32 1.98 2 3 C2.70125 3.969375 3.4025 4.93875 4.125 5.9375 C6 9 6 9 6 13 C5.01 12.67 4.02 12.34 3 12 C3.66 12 4.32 12 5 12 C4.55527344 11.55269531 4.11054688 11.10539063 3.65234375 10.64453125 C1.94760783 8.82329857 0.39152036 7.07229494 -1 5 C-0.875 2.0625 -0.875 2.0625 0 0 Z " fill="#DDAF6B" transform="translate(352,186)"/>
<path d="M0 0 C0.66 0 1.32 0 2 0 C2 0.66 2 1.32 2 2 C2.66 2 3.32 2 4 2 C8.59225513 10.261959 8.59225513 10.261959 8 15 C5.4135416 12.4135416 4.37728117 9.7061452 2.875 6.375 C2.33617187 5.18648437 1.79734375 3.99796875 1.2421875 2.7734375 C0.83226562 1.85820312 0.42234375 0.94296875 0 0 Z " fill="#DFB467" transform="translate(310,163)"/>
<path d="M0 0 C-0.66 2.31 -1.32 4.62 -2 7 C-3.65 7 -5.3 7 -7 7 C-6.61402985 4.20171644 -6.19863427 3.1794116 -4.0625 1.25 C-2 0 -2 0 0 0 Z " fill="#BEA87A" transform="translate(222,153)"/>
<path d="M0 0 C-0.59927826 3.35595828 -1.84622436 5.37801226 -4 8 C-4.33 7.01 -4.66 6.02 -5 5 C-5.99 4.34 -6.98 3.68 -8 3 C-3.375 0 -3.375 0 0 0 Z " fill="#638296" transform="translate(395,208)"/>
<path d="M0 0 C0.51046875 0.49113281 1.0209375 0.98226562 1.546875 1.48828125 C4.89448982 3.55122223 7.35209972 3.29577501 11.25 3.1875 C12.51328125 3.16042969 13.7765625 3.13335937 15.078125 3.10546875 C16.04234375 3.07066406 17.0065625 3.03585938 18 3 C13.06825845 5.62166653 8.51426887 6.61857168 3.0625 5.0625 C2.051875 4.711875 1.04125 4.36125 0 4 C0 2.68 0 1.36 0 0 Z " fill="#124F7A" transform="translate(281,207)"/>
<path d="M0 0 C0 0.66 0 1.32 0 2 C-3.82745451 3.74685308 -7.12442723 4.34886333 -11.3125 4.625 C-12.38113281 4.69976562 -13.44976562 4.77453125 -14.55078125 4.8515625 C-15.76314453 4.92503906 -15.76314453 4.92503906 -17 5 C-14.33534119 3.22356079 -12.99267607 2.61198571 -10 1.9375 C-1.54545455 0 -1.54545455 0 0 0 Z " fill="#DBA963" transform="translate(357,203)"/>
<path d="M0 0 C2.64 0 5.28 0 8 0 C7.67 1.32 7.34 2.64 7 4 C3.7 3.67 0.4 3.34 -3 3 C-2.01 2.67 -1.02 2.34 0 2 C0 1.34 0 0.68 0 0 Z " fill="#326483" transform="translate(307,180)"/>
<path d="M0 0 C1.65 0 3.3 0 5 0 C2.20283196 3.29078593 -1.19528578 5.06305458 -5 7 C-5.66 6.67 -6.32 6.34 -7 6 C-7 4 -7 4 -5 2 C-2.375 1.375 -2.375 1.375 0 1 C0 0.67 0 0.34 0 0 Z " fill="#597F9E" transform="translate(400,177)"/>
<path d="M0 0 C1.24343376 3.73030129 0.4405794 4.45985275 -1 8 C-1.27876518 10.0959986 -1.48588744 12.20262611 -1.625 14.3125 C-1.69976562 15.38113281 -1.77453125 16.44976562 -1.8515625 17.55078125 C-1.90054688 18.35902344 -1.94953125 19.16726562 -2 20 C-2.33 20 -2.66 20 -3 20 C-3.02705308 17.58325776 -3.04686438 15.1668206 -3.0625 12.75 C-3.07087891 12.06808594 -3.07925781 11.38617188 -3.08789062 10.68359375 C-3.12107066 3.84850658 -3.12107066 3.84850658 -2 1 C-1.34 0.67 -0.68 0.34 0 0 Z " fill="#DFB67D" transform="translate(215,166)"/>
<path d="M0 0 C0.66 0 1.32 0 2 0 C2.12375 0.969375 2.2475 1.93875 2.375 2.9375 C2.684375 4.4534375 2.684375 4.4534375 3 6 C3.66 6.33 4.32 6.66 5 7 C5 9.31 5 11.62 5 14 C4.34 14 3.68 14 3 14 C2.566875 12.453125 2.566875 12.453125 2.125 10.875 C1.17691202 7.54992003 0.11743406 4.27248547 -1 1 C-0.67 0.67 -0.34 0.34 0 0 Z " fill="#E8922F" transform="translate(315,165)"/>
<path d="M0 0 C0.33 0 0.66 0 1 0 C0.51171875 6.0546875 0.51171875 6.0546875 0 8 C-0.99 8.66 -1.98 9.32 -3 10 C-3.625 7.6875 -3.625 7.6875 -4 5 C-3.34 4.01 -2.68 3.02 -2 2 C-1.34 2 -0.68 2 0 2 C0 1.34 0 0.68 0 0 Z " fill="#18507A" transform="translate(391,146)"/>
<path d="M0 0 C0.66 0 1.32 0 2 0 C2 0.66 2 1.32 2 2 C2.99 2.33 3.98 2.66 5 3 C0.07015675 5.03993514 -3.57960425 6.40652968 -9 6 C-8.67 5.34 -8.34 4.68 -8 4 C-5.35139573 3.40644386 -2.70802678 3.25790731 0 3 C0 2.01 0 1.02 0 0 Z " fill="#E0B369" transform="translate(339,223)"/>
<path d="M0 0 C1.98 0.66 3.96 1.32 6 2 C5.8125 3.875 5.8125 3.875 5 6 C2.4375 7.25 2.4375 7.25 0 8 C0 5.36 0 2.72 0 0 Z " fill="#60849A" transform="translate(435,152)"/>
<path d="M0 0 C4.96916636 0.51405169 9.29026351 1.23384882 14 3 C13.01 3.495 13.01 3.495 12 4 C11.67 4.66 11.34 5.32 11 6 C10.4225 5.690625 9.845 5.38125 9.25 5.0625 C7.15705816 4.07416636 5.25464725 3.4831387 3 3 C3 2.34 3 1.68 3 1 C2.01 0.67 1.02 0.34 0 0 Z " fill="#517C9B" transform="translate(317,98)"/>
<path d="M0 0 C1.98 0.66 3.96 1.32 6 2 C6 2.66 6 3.32 6 4 C2.7 4 -0.6 4 -4 4 C-4 3.34 -4 2.68 -4 2 C-2.68 2 -1.36 2 0 2 C0 1.34 0 0.68 0 0 Z " fill="#E69635" transform="translate(324,226)"/>
<path d="M0 0 C-2.02855159 2.02855159 -3.33019566 3.00835839 -6 4 C-8.75 3.625 -8.75 3.625 -11 3 C-11 2.34 -11 1.68 -11 1 C-7.32589215 -0.17571451 -3.83070817 -0.07366746 0 0 Z " fill="#E1AF6C" transform="translate(396,203)"/>
<path d="M0 0 C1.98 0.66 3.96 1.32 6 2 C6 3.98 6 5.96 6 8 C2.24623848 6.74874616 1.75926711 5.4347596 0 2 C0 1.34 0 0.68 0 0 Z " fill="#E5A352" transform="translate(325,192)"/>
<path d="M0 0 C1.98 0.495 1.98 0.495 4 1 C4 1.33 4 1.66 4 2 C6.31 2.33 8.62 2.66 11 3 C11 3.99 11 4.98 11 6 C5.06 4.515 5.06 4.515 -1 3 C-0.67 2.01 -0.34 1.02 0 0 Z " fill="#4D7A99" transform="translate(311,122)"/>
<path d="M0 0 C-5.17578125 3.22265625 -5.17578125 3.22265625 -7 4 C-7.99 3.67 -8.98 3.34 -10 3 C-9.67 2.01 -9.34 1.02 -9 0 C-5.62182575 -0.84454356 -3.32534757 -1.10844919 0 0 Z " fill="#DCA559" transform="translate(420,189)"/>
<path d="M0 0 C1.32 0.33 2.64 0.66 4 1 C0.7 3.31 -2.6 5.62 -6 8 C-6.33 7.01 -6.66 6.02 -7 5 C-6.34 4.34 -5.68 3.68 -5 3 C-3.68 3 -2.36 3 -1 3 C-0.67 2.01 -0.34 1.02 0 0 Z " fill="#DFB370" transform="translate(433,176)"/>
<path d="M0 0 C1.2065625 0.0309375 1.2065625 0.0309375 2.4375 0.0625 C2.4375 1.7125 2.4375 3.3625 2.4375 5.0625 C2.1075 4.4025 1.7775 3.7425 1.4375 3.0625 C0.1175 2.7325 -1.2025 2.4025 -2.5625 2.0625 C-2.5625 5.0325 -2.5625 8.0025 -2.5625 11.0625 C-2.8925 11.0625 -3.2225 11.0625 -3.5625 11.0625 C-3.58938151 9.41675434 -3.60884123 7.77088587 -3.625 6.125 C-3.63660156 5.20847656 -3.64820313 4.29195312 -3.66015625 3.34765625 C-3.52086326 0.08820018 -3.27895972 0.07997463 0 0 Z " fill="#DF902B" transform="translate(310.5625,159.9375)"/>
<path d="M0 0 C-0.33 0.66 -0.66 1.32 -1 2 C-4.375 2.75 -4.375 2.75 -8 3 C-8.99 2.34 -9.98 1.68 -11 1 C-7.2297564 -1.56376565 -4.32597804 -0.83191885 0 0 Z " fill="#407393" transform="translate(371,222)"/>
<path d="M0 0 C0 0.66 0 1.32 0 2 C-0.99 2 -1.98 2 -3 2 C-3 2.66 -3 3.32 -3 4 C-6.4019487 6.09350689 -9.05272412 6.17942163 -13 6 C-10.65890118 4.43926745 -8.43666597 3.13626133 -5.9375 1.875 C-5.24527344 1.52179688 -4.55304688 1.16859375 -3.83984375 0.8046875 C-2 0 -2 0 0 0 Z " fill="#DAA96C" transform="translate(395,187)"/>
<path d="M0 0 C1.32 0.66 2.64 1.32 4 2 C1.375 6.875 1.375 6.875 -2 8 C-1.34 5.36 -0.68 2.72 0 0 Z " fill="#1C527D" transform="translate(395,136)"/>
<path d="M0 0 C-0.66 2.31 -1.32 4.62 -2 7 C-3.89213369 4.61426621 -5.02391783 2.92824652 -6 0 C-3.50907189 -1.24546405 -2.58919267 -0.7767578 0 0 Z " fill="#316486" transform="translate(353,238)"/>
<path d="M0 0 C0.99 0.33 1.98 0.66 3 1 C3 1.66 3 2.32 3 3 C3.66 3 4.32 3 5 3 C5.12375 3.639375 5.2475 4.27875 5.375 4.9375 C5.684375 5.9584375 5.684375 5.9584375 6 7 C6.66 7.33 7.32 7.66 8 8 C7.01 8 6.02 8 5 8 C0 2.65116279 0 2.65116279 0 0 Z " fill="#DAAB66" transform="translate(198,216)"/>
<path d="M0 0 C4.62 0.66 9.24 1.32 14 2 C14 2.33 14 2.66 14 3 C12.42120045 3.27719381 10.83646933 3.52074143 9.25 3.75 C7.92742187 3.95882812 7.92742187 3.95882812 6.578125 4.171875 C4 4 4 4 0 0 Z " fill="#EDC57F" transform="translate(245,214)"/>
<path d="M0 0 C5 6.66666667 5 6.66666667 5 11 C3.35 10.67 1.7 10.34 0 10 C0 6.7 0 3.4 0 0 Z " fill="#5C839B" transform="translate(321,193)"/>
<path d="M0 0 C0.66 0.33 1.32 0.66 2 1 C1.67 2.32 1.34 3.64 1 5 C1.99 5.33 2.98 5.66 4 6 C3.67 6.66 3.34 7.32 3 8 C1.35 8 -0.3 8 -2 8 C-1.33333333 5.33333333 -0.66666667 2.66666667 0 0 Z " fill="#0E4572" transform="translate(371,184)"/>
<path d="M0 0 C1.8125 0.5625 1.8125 0.5625 4 2 C5.7844844 5.56896879 7.21605182 9.0802591 8 13 C5.68757908 10.83676753 3.9843604 8.62352196 2.3125 5.9375 C1.87550781 5.24527344 1.43851562 4.55304688 0.98828125 3.83984375 C0 2 0 2 0 0 Z " fill="#345259" transform="translate(342,170)"/>
<path d="M0 0 C0.66 0.99 1.32 1.98 2 3 C2.66 2.01 3.32 1.02 4 0 C4.66 0 5.32 0 6 0 C5.25 2.9375 5.25 2.9375 4 6 C1.875 6.875 1.875 6.875 0 7 C-1.04449911 3.86650268 -0.93423645 3.01031744 0 0 Z " fill="#387193" transform="translate(410,155)"/>
<path d="M0 0 C2.64 0 5.28 0 8 0 C8 1.65 8 3.3 8 5 C4.5625 4.1875 4.5625 4.1875 1 3 C0.67 2.01 0.34 1.02 0 0 Z " fill="#336991" transform="translate(299,240)"/>
<path d="M0 0 C0.625 2.875 0.625 2.875 1 6 C0.34 6.66 -0.32 7.32 -1 8 C-4 3.25 -4 3.25 -4 1 C-2 0 -2 0 0 0 Z " fill="#226492" transform="translate(406,168)"/>
<path d="M0 0 C-2.95183101 2.95183101 -5.95511947 3.08663988 -10 4 C-10.33 3.34 -10.66 2.68 -11 2 C-7.36576791 -0.32590854 -4.22911669 -0.16265833 0 0 Z " fill="#DBA65D" transform="translate(459,141)"/>
<path d="M0 0 C0.33 0.66 0.66 1.32 1 2 C1.99 1.67 2.98 1.34 4 1 C4 1.99 4 2.98 4 4 C2.68 4 1.36 4 0 4 C-0.33 4.99 -0.66 5.98 -1 7 C-1.66 7 -2.32 7 -3 7 C-1.125 1.125 -1.125 1.125 0 0 Z " fill="#3E7396" transform="translate(408,111)"/>
<path d="M0 0 C0.66 0.66 1.32 1.32 2 2 C1.8125 4.5 1.8125 4.5 1 7 C0.01 7.66 -0.98 8.32 -2 9 C-2.6875 7.3125 -2.6875 7.3125 -3 5 C-1.5625 2.25 -1.5625 2.25 0 0 Z " fill="#426D8E" transform="translate(415,97)"/>
<path d="M0 0 C1.5 1 1.5 1 3 3 C3.27345479 5.71846235 3.13491285 8.25677199 3 11 C3.66 11.33 4.32 11.66 5 12 C4.01 12 3.02 12 2 12 C0.86235649 7.73383684 0 4.43513689 0 0 Z " fill="#E8C893" transform="translate(455,163)"/>
<path d="M0 0 C0.33 0 0.66 0 1 0 C1.39222105 1.41199578 1.76311059 2.82992764 2.125 4.25 C2.33382813 5.03890625 2.54265625 5.8278125 2.7578125 6.640625 C3.04314411 9.4203071 2.44977894 10.65887549 1 13 C0 12 0 12 -0.09765625 9.27734375 C-0.08605469 8.17519531 -0.07445312 7.07304687 -0.0625 5.9375 C-0.05347656 4.83277344 -0.04445313 3.72804687 -0.03515625 2.58984375 C-0.02355469 1.73519531 -0.01195312 0.88054687 0 0 Z " fill="#1A4869" transform="translate(363,143)"/>
<path d="M0 0 C2.25245881 2.68841859 3.88213958 4.64641875 5 8 C3.68 8 2.36 8 1 8 C0.67 5.36 0.34 2.72 0 0 Z " fill="#E1AF65" transform="translate(326,140)"/>
<path d="M0 0 C1.32 0.33 2.64 0.66 4 1 C4.33 3.97 4.66 6.94 5 10 C4.67 9.01 4.34 8.02 4 7 C3.34 7 2.68 7 2 7 C1.34 4.69 0.68 2.38 0 0 Z " fill="#3E6C90" transform="translate(331,137)"/>
<path d="M0 0 C0 3 0 3 -1 6 C-1.99 6 -2.98 6 -4 6 C-4 5.34 -4 4.68 -4 4 C-4.66 3.67 -5.32 3.34 -6 3 C-4.02 2.01 -2.04 1.02 0 0 Z " fill="#497D9C" transform="translate(380,214)"/>
<path d="M0 0 C0.33 1.32 0.66 2.64 1 4 C0.67 3.34 0.34 2.68 0 2 C-2.97 2.66 -5.94 3.32 -9 4 C-9 3.34 -9 2.68 -9 2 C-5.86501708 0.14223235 -3.62528568 -0.20140476 0 0 Z " fill="#1F4A6B" transform="translate(390,212)"/>
<path d="M0 0 C4.455 1.98 4.455 1.98 9 4 C9 4.33 9 4.66 9 5 C6.03 4.67 3.06 4.34 0 4 C0 2.68 0 1.36 0 0 Z " fill="#E4AE6A" transform="translate(227,207)"/>
<path d="M0 0 C0.99 0.33 1.98 0.66 3 1 C1.515 3.475 1.515 3.475 0 6 C-0.99 5.67 -1.98 5.34 -3 5 C-2.625 3.0625 -2.625 3.0625 -2 1 C-1.34 0.67 -0.68 0.34 0 0 Z " fill="#3A6B8F" transform="translate(355,178)"/>
<path d="M0 0 C1.65 0 3.3 0 5 0 C5 1.65 5 3.3 5 5 C4.01 4.34 3.02 3.68 2 3 C1.01 3.33 0.02 3.66 -1 4 C-0.67 2.68 -0.34 1.36 0 0 Z " fill="#D99C4A" transform="translate(452,159)"/>
<path d="M0 0 C1.65 0.99 3.3 1.98 5 3 C4.67 3.99 4.34 4.98 4 6 C1.36 5.01 -1.28 4.02 -4 3 C-2.68 2.67 -1.36 2.34 0 2 C0 1.34 0 0.68 0 0 Z " fill="#E3AF6B" transform="translate(443,148)"/>
<path d="M0 0 C0.99 0.99 1.98 1.98 3 3 C2.67 3.66 2.34 4.32 2 5 C-0.0625 5.625 -0.0625 5.625 -2 6 C-2 5.34 -2 4.68 -2 4 C-2.66 4 -3.32 4 -4 4 C-4 3.01 -4 2.02 -4 1 C-3.01 1.33 -2.02 1.66 -1 2 C-0.67 1.34 -0.34 0.68 0 0 Z " fill="#2B6895" transform="translate(349,113)"/>
<path d="M0 0 C0.66 0.33 1.32 0.66 2 1 C2 3.31 2 5.62 2 8 C1.34 8 0.68 8 0 8 C-0.38063221 5.6739143 -0.71269945 3.33944736 -1 1 C-0.67 0.67 -0.34 0.34 0 0 Z " fill="#134D77" transform="translate(347,230)"/>
<path d="M0 0 C1.98 0 3.96 0 6 0 C5.01 0.66 4.02 1.32 3 2 C2.74984127 5.58357241 2.74984127 5.58357241 3 9 C0.23776722 6.23776722 0.42143709 3.79293383 0 0 Z " fill="#5C7F97" transform="translate(344,229)"/>
<path d="M0 0 C4 0 4 0 7 1 C7.6875 3.0625 7.6875 3.0625 8 5 C2.25 3.375 2.25 3.375 0 0 Z " fill="#E5B370" transform="translate(205,225)"/>
<path d="M0 0 C0.99 0 1.98 0 3 0 C4.06775224 1.96466413 5.06553465 3.96855359 6 6 C5.67 6.66 5.34 7.32 5 8 C2.20127563 5.47211993 0.54226981 3.79588866 0 0 Z " fill="#DF9334" transform="translate(203,219)"/>
<path d="M0 0 C-2.93828597 2.50298434 -5.17902761 3.46930939 -9 4 C-8.67 3.01 -8.34 2.02 -8 1 C-5.29120665 -0.35439668 -2.99066732 -0.06501451 0 0 Z " fill="#607FA0" transform="translate(383,188)"/>
<path d="M0 0 C0.66 0.33 1.32 0.66 2 1 C0.9375 3 0.9375 3 -1 5 C-4.6875 5.25 -4.6875 5.25 -8 5 C-5.56159764 2.56159764 -3.14759102 1.37707107 0 0 Z " fill="#DBAE6C" transform="translate(405,181)"/>
<path d="M0 0 C0.66 0.33 1.32 0.66 2 1 C1.67 2.32 1.34 3.64 1 5 C-1.31 5.33 -3.62 5.66 -6 6 C-4.71034824 4.62437146 -3.37310707 3.29233607 -2 2 C-1.34 2 -0.68 2 0 2 C0 1.34 0 0.68 0 0 Z " fill="#5A8EA7" transform="translate(436,180)"/>
<path d="M0 0 C0.66 0.33 1.32 0.66 2 1 C2 1.66 2 2.32 2 3 C1.01 3 0.02 3 -1 3 C-1 4.98 -1 6.96 -1 9 C-1.99 8.34 -2.98 7.68 -4 7 C-1.125 1.125 -1.125 1.125 0 0 Z " fill="#658AA6" transform="translate(386,154)"/>
<path d="M0 0 C0 0.66 0 1.32 0 2 C0.66 2 1.32 2 2 2 C2 2.66 2 3.32 2 4 C0.02 4 -1.96 4 -4 4 C-4 3.01 -4 2.02 -4 1 C-2 0 -2 0 0 0 Z " fill="#E6A445" transform="translate(361,201)"/>
<path d="M0 0 C1.4540625 0.0309375 1.4540625 0.0309375 2.9375 0.0625 C2.9375 0.7225 2.9375 1.3825 2.9375 2.0625 C1.9475 2.0625 0.9575 2.0625 -0.0625 2.0625 C-0.3925 3.3825 -0.7225 4.7025 -1.0625 6.0625 C-1.0625 4.7425 -1.0625 3.4225 -1.0625 2.0625 C-2.0525 1.7325 -3.0425 1.4025 -4.0625 1.0625 C-3.0625 0.0625 -3.0625 0.0625 0 0 Z " fill="#487CA0" transform="translate(258.0625,205.9375)"/>
<path d="M0 0 C0 1.65 0 3.3 0 5 C-1.98 5 -3.96 5 -6 5 C-5.67 4.34 -5.34 3.68 -5 3 C-4.34 3 -3.68 3 -3 3 C-3 2.34 -3 1.68 -3 1 C-1 0 -1 0 0 0 Z " fill="#4E6D80" transform="translate(448,172)"/>
<path d="M0 0 C0.33 0.99 0.66 1.98 1 3 C0.01 3.33 -0.98 3.66 -2 4 C-2 4.66 -2 5.32 -2 6 C-3.65 6 -5.3 6 -7 6 C-2.25 2 -2.25 2 0 2 C0 1.34 0 0.68 0 0 Z " fill="#E3BA7F" transform="translate(448,154)"/>
<path d="M0 0 C0.99 0.33 1.98 0.66 3 1 C3.6875 3.0625 3.6875 3.0625 4 5 C2.68 5 1.36 5 0 5 C-0.5625 3.0625 -0.5625 3.0625 -1 1 C-0.67 0.67 -0.34 0.34 0 0 Z " fill="#367192" transform="translate(356,123)"/>
<path d="" fill="#FFFFFF" transform="translate(0,0)"/>
<path d="" fill="#FFFFFF" transform="translate(0,0)"/>
<path d="" fill="#FFFFFF" transform="translate(0,0)"/>
<path d="" fill="#FFFFFF" transform="translate(0,0)"/>
<path d="" fill="#FFFFFF" transform="translate(0,0)"/>
<path d="" fill="#FFFFFF" transform="translate(0,0)"/>
<path d="" fill="#FFFFFF" transform="translate(0,0)"/>
<path d="" fill="#FFFFFF" transform="translate(0,0)"/>
<path d="" fill="#FFFFFF" transform="translate(0,0)"/>
<path d="" fill="#FFFFFF" transform="translate(0,0)"/>
<path d="" fill="#FFFFFF" transform="translate(0,0)"/>
<path d="" fill="#FFFFFF" transform="translate(0,0)"/>
<path d="" fill="#FFFFFF" transform="translate(0,0)"/>
<path d="" fill="#FFFFFF" transform="translate(0,0)"/>
<path d="" fill="#FFFFFF" transform="translate(0,0)"/>
<path d="" fill="#FFFFFF" transform="translate(0,0)"/>
<path d="" fill="#FFFFFF" transform="translate(0,0)"/>
<path d="" fill="#FFFFFF" transform="translate(0,0)"/>
<path d="" fill="#FFFFFF" transform="translate(0,0)"/>
<path d="" fill="#FFFFFF" transform="translate(0,0)"/>
<path d="" fill="#FFFFFF" transform="translate(0,0)"/>
<path d="" fill="#FFFFFF" transform="translate(0,0)"/>
<path d="" fill="#FFFFFF" transform="translate(0,0)"/>
<path d="" fill="#FFFFFF" transform="translate(0,0)"/>
<path d="" fill="#FFFFFF" transform="translate(0,0)"/>
<path d="" fill="#FFFFFF" transform="translate(0,0)"/>
<path d="" fill="#FFFFFF" transform="translate(0,0)"/>
<path d="" fill="#FFFFFF" transform="translate(0,0)"/>
<path d="" fill="#FFFFFF" transform="translate(0,0)"/>
<path d="" fill="#FFFFFF" transform="translate(0,0)"/>
<path d="" fill="#FFFFFF" transform="translate(0,0)"/>
<path d="" fill="#FFFFFF" transform="translate(0,0)"/>
<path d="" fill="#FFFFFF" transform="translate(0,0)"/>
<path d="" fill="#FFFFFF" transform="translate(0,0)"/>
<path d="" fill="#FFFFFF" transform="translate(0,0)"/>
<path d="" fill="#FFFFFF" transform="translate(0,0)"/>
<path d="" fill="#FFFFFF" transform="translate(0,0)"/>
<path d="" fill="#FFFFFF" transform="translate(0,0)"/>
<path d="" fill="#FFFFFF" transform="translate(0,0)"/>
<path d="" fill="#FFFFFF" transform="translate(0,0)"/>
<path d="" fill="#FFFFFF" transform="translate(0,0)"/>
<path d="" fill="#FFFFFF" transform="translate(0,0)"/>
<path d="" fill="#FFFFFF" transform="translate(0,0)"/>
<path d="" fill="#FFFFFF" transform="translate(0,0)"/>
<path d="" fill="#FFFFFF" transform="translate(0,0)"/>
<path d="" fill="#FFFFFF" transform="translate(0,0)"/>
<path d="" fill="#FFFFFF" transform="translate(0,0)"/>
<path d="" fill="#FFFFFF" transform="translate(0,0)"/>
<path d="" fill="#FFFFFF" transform="translate(0,0)"/>
<path d="" fill="#FFFFFF" transform="translate(0,0)"/>
<path d="" fill="#FFFFFF" transform="translate(0,0)"/>
<path d="" fill="#FFFFFF" transform="translate(0,0)"/>
<path d="" fill="#FFFFFF" transform="translate(0,0)"/>
<path d="" fill="#FFFFFF" transform="translate(0,0)"/>
<path d="" fill="#FFFFFF" transform="translate(0,0)"/>
<path d="" fill="#FFFFFF" transform="translate(0,0)"/>
<path d="" fill="#FFFFFF" transform="translate(0,0)"/>
<path d="" fill="#FFFFFF" transform="translate(0,0)"/>
<path d="" fill="#FFFFFF" transform="translate(0,0)"/>
<path d="" fill="#FFFFFF" transform="translate(0,0)"/>
<path d="" fill="#FFFFFF" transform="translate(0,0)"/>
<path d="" fill="#FFFFFF" transform="translate(0,0)"/>
<path d="" fill="#FFFFFF" transform="translate(0,0)"/>
<path d="" fill="#FFFFFF" transform="translate(0,0)"/>
<path d="" fill="#FFFFFF" transform="translate(0,0)"/>
<path d="" fill="#FFFFFF" transform="translate(0,0)"/>
<path d="" fill="#FFFFFF" transform="translate(0,0)"/>
<path d="" fill="#FFFFFF" transform="translate(0,0)"/>
<path d="" fill="#FFFFFF" transform="translate(0,0)"/>
<path d="" fill="#00FFFF" transform="translate(0,0)"/>
<path d="" fill="#FFFFFF" transform="translate(0,0)"/>
<path d="" fill="#FFFFFF" transform="translate(0,0)"/>
<path d="" fill="#FFFFFF" transform="translate(0,0)"/>
<path d="" fill="#FFFFFF" transform="translate(0,0)"/>
<path d="" fill="#FFFFFF" transform="translate(0,0)"/>
<path d="" fill="#FFFFFF" transform="translate(0,0)"/>
<path d="" fill="#FFFFFF" transform="translate(0,0)"/>
<path d="" fill="#FFFFFF" transform="translate(0,0)"/>
<path d="" fill="#FFFFFF" transform="translate(0,0)"/>
<path d="" fill="#FFFFFF" transform="translate(0,0)"/>
<path d="" fill="#FFFFFF" transform="translate(0,0)"/>
<path d="" fill="#FFFFFF" transform="translate(0,0)"/>
<path d="" fill="#FFFFFF" transform="translate(0,0)"/>
</svg>
